<?xml version="1.0" standalone="no"?>
<!DOCTYPE svg PUBLIC "-//W3C//DTD SVG 20010904//EN"
 "http://www.w3.org/TR/2001/REC-SVG-20010904/DTD/svg10.dtd">
<svg version="1.0" xmlns="http://www.w3.org/2000/svg"
 width="656.000000pt" height="656.000000pt" viewBox="0 0 656.000000 656.000000"
 preserveAspectRatio="xMidYMid meet">
<metadata>
Created by potrace 1.14, written by Peter Selinger 2001-2017
</metadata>
<g transform="translate(0.000000,656.000000) scale(0.100000,-0.100000)"
fill="#000000" stroke="none">
<path d="M1605 6228 c-435 -49 -861 -269 -1147 -593 -334 -378 -501 -892 -448
-1370 12 -101 60 -358 91 -480 116 -455 372 -960 736 -1450 282 -381 709 -824
1103 -1146 408 -334 884 -627 1243 -766 104 -40 90 -42 297 49 843 372 1810
1218 2397 2098 274 411 473 835 569 1213 82 326 113 582 96 792 -37 438 -217
828 -523 1134 -608 609 -1558 703 -2274 227 -171 -115 -303 -237 -440 -409
l-30 -38 -89 106 c-379 456 -988 700 -1581 633z m1883 -1585 c18 -9 45 -32 60
-51 38 -50 39 -94 2 -722 -33 -550 -40 -811 -23 -864 9 -31 37 -55 49 -44 3 4
73 299 155 655 82 356 154 666 160 688 15 52 65 100 119 115 36 10 56 9 109
-4 99 -25 151 -83 151 -170 0 -25 -63 -319 -139 -653 -145 -634 -165 -745
-166 -903 0 -161 48 -220 141 -170 75 39 132 116 289 391 166 289 182 308 275
317 40 4 60 -1 105 -23 78 -38 110 -87 110 -170 l0 -62 -257 -449 c-205 -359
-266 -474 -304 -574 -66 -176 -114 -276 -180 -377 -107 -165 -267 -298 -437
-364 -301 -116 -728 -100 -999 37 -314 159 -541 483 -619 886 -23 121 -24 233
-3 483 10 117 14 243 11 330 -5 140 -5 140 -110 530 -127 472 -121 444 -107
494 30 111 179 176 287 125 69 -33 75 -49 212 -565 92 -344 139 -502 163 -549
59 -116 94 -83 85 80 -3 52 -51 386 -107 743 -59 382 -98 659 -94 675 11 47
47 102 80 123 102 63 242 31 288 -65 10 -21 58 -307 121 -718 58 -376 112
-702 121 -724 8 -23 23 -49 34 -59 43 -39 45 -18 90 760 37 662 43 734 61 772
44 92 161 125 267 76z"/>
<path d="M3218 2955 c-18 -10 -31 -29 -37 -53 -6 -20 -17 -174 -26 -342 -19
-374 -22 -410 -40 -410 -21 0 -31 44 -85 400 -29 184 -56 342 -61 352 -31 59
-124 64 -166 9 -20 -26 -16 -73 38 -417 50 -324 55 -394 32 -401 -21 -7 -42
52 -107 296 -35 131 -69 248 -75 259 -34 63 -142 52 -171 -18 -11 -27 -7 -52
44 -243 62 -236 64 -251 52 -487 -7 -150 -6 -172 13 -243 57 -219 200 -374
396 -433 83 -25 267 -25 350 0 84 25 130 51 188 104 67 63 119 144 162 257 20
52 93 192 162 312 69 120 127 233 130 250 5 27 0 38 -30 68 -22 22 -45 35 -61
35 -55 0 -75 -20 -154 -159 -87 -154 -130 -204 -170 -199 -21 2 -30 11 -39 40
-19 57 -1 170 78 511 38 165 69 310 69 323 0 33 -40 71 -83 79 -42 8 -92 -15
-103 -47 -4 -13 -42 -171 -83 -351 -42 -180 -81 -328 -86 -328 -26 -1 -28 79
-12 379 23 405 23 413 -7 441 -30 28 -83 36 -118 16z"/>
</g>
</svg>
