<svg width="41" height="37" viewBox="0 0 41 37" fill="none" xmlns="http://www.w3.org/2000/svg">
<path d="M40.9307 11.2609C40.9307 5.0414 35.8768 6.86883e-07 29.6406 5.67487e-07C25.8564 4.95037e-07 22.5135 1.86503 20.4653 4.71252C18.4171 1.86503 15.0743 2.88605e-07 11.2901 2.16155e-07C5.05389 9.67598e-08 -9.65206e-08 5.0414 -2.15597e-07 11.2609C-2.32415e-07 12.1393 0.1124 12.9927 0.303899 13.817C1.87335 23.5293 12.7013 33.7745 20.4653 36.5845C28.2252 33.7745 39.0573 23.5293 40.6226 13.817C40.8183 12.9927 40.9307 12.1393 40.9307 11.2609Z" fill="#ED9D8C"/>
<path d="M16.0778 21.4894C16.236 22.0847 15.8863 22.6967 15.2951 22.8549L15.0703 22.9173C14.4792 23.0755 13.8714 22.7217 13.7132 22.1264L11.7482 14.762C11.5942 14.1667 11.9439 13.5547 12.535 13.3924L12.7557 13.3341C13.351 13.1759 13.9588 13.5298 14.117 14.1251L16.0778 21.4894ZM19.0127 20.2905C19.1126 20.9233 18.6838 21.5144 18.0552 21.6102L17.9053 21.6351C17.2767 21.7309 16.6897 21.3021 16.594 20.6693L15.1619 11.3858C15.062 10.7572 15.4949 10.1661 16.1194 10.0703L16.2693 10.0453C16.8979 9.94543 17.4849 10.3784 17.5806 11.007L19.0127 20.2905ZM21.8727 20.2197C21.8352 20.8442 21.3023 21.3187 20.6862 21.2854L20.5363 21.273C19.916 21.2396 19.4415 20.7026 19.4789 20.0823L20.0035 10.9029C20.0368 10.2826 20.5696 9.80389 21.1899 9.84135L21.3398 9.84968C21.9601 9.88298 22.4305 10.42 22.3972 11.0403L21.8727 20.2197ZM24.6827 21.427C24.5495 22.0056 23.975 22.3678 23.3963 22.2346L23.0966 22.1638C22.5221 22.0306 22.1641 21.452 22.2973 20.8733L24.2997 12.1685C24.4329 11.5898 25.0074 11.2276 25.586 11.365L25.8858 11.4316C26.4603 11.569 26.8183 12.1477 26.6851 12.7263L24.6827 21.427ZM26.9723 26.6141C26.6518 27.1678 25.9441 27.3593 25.3904 27.0387L25.2738 26.9721C24.7201 26.6474 24.5328 25.9355 24.8534 25.3818L28.2878 19.3954C28.6042 18.8376 29.3161 18.6461 29.8656 18.9666L29.9863 19.0374C30.54 19.358 30.7274 20.0698 30.4068 20.6277L26.9723 26.6141Z" fill="white"/>
<path d="M13.0428 19.6203C13.3384 21.0649 12.9346 22.8133 12.9346 24.5452C12.9346 26.2728 14.2334 31.9345 20.2823 31.9345C26.327 31.9345 26.71 26.8639 27.63 25.3653C28.5458 23.8666 27.4052 21.3521 26.5185 22.4678C25.3195 23.979 24.3953 23.7334 24.8991 20.8109C25.2737 18.6337 23.084 17.5804 22.6927 19.5454C22.3888 21.0649 21.8975 20.7485 21.9641 19.0708C22.0516 17.0476 19.7119 16.8269 19.5912 19.1249C19.508 20.7943 18.9501 20.0824 18.7836 18.9584C18.6421 17.9926 16.0943 17.2807 16.3274 18.7627C16.6896 21.094 16.215 21.7393 15.4324 19.2082C14.9411 17.6096 12.7514 18.1758 13.0428 19.6203Z" fill="white"/>
<path d="M25.1568 23.3461C24.9736 23.2712 24.8446 23.0464 24.7904 22.6592C23.6331 22.8174 22.1011 23.1338 20.8939 24.3203C19.3286 25.8564 19.0621 27.5216 19.0746 28.6331C19.083 29.5324 19.57 29.957 19.7116 28.629C19.8947 26.9471 21.0854 23.6209 25.1568 23.3461Z" fill="white"/>
<path d="M17.872 26.2685C17.9553 26.5683 17.7762 26.8722 17.4807 26.9554L17.3724 26.9846C17.0727 27.0637 16.7688 26.8888 16.6897 26.5891L15.7114 22.909C15.6323 22.6134 15.8071 22.3053 16.1027 22.2262L16.2151 22.1971C16.5107 22.118 16.8146 22.2929 16.8937 22.5926L17.872 26.2685ZM19.3415 25.6732C19.3915 25.9896 19.175 26.2852 18.8628 26.331L18.7879 26.3435C18.4756 26.3934 18.1801 26.1769 18.1301 25.8605L17.4141 21.223C17.3683 20.9107 17.5806 20.6152 17.8928 20.5652L17.9719 20.5527C18.2841 20.5028 18.5755 20.7192 18.6255 21.0356L19.3415 25.6732ZM20.7695 25.6357C20.7528 25.948 20.4864 26.1853 20.1783 26.1686L20.1034 26.1644C19.7911 26.1478 19.558 25.8814 19.5747 25.5691L19.8369 20.9815C19.8536 20.6693 20.12 20.432 20.4281 20.4486L20.503 20.457C20.8152 20.4736 21.0484 20.7401 21.0317 21.0523L20.7695 25.6357ZM22.1765 26.2394C22.1099 26.5308 21.8227 26.7098 21.5313 26.6432L21.3856 26.6099C21.0942 26.5433 20.9152 26.2519 20.9818 25.9646L21.985 21.6143C22.0517 21.327 22.3389 21.1439 22.6262 21.2105L22.776 21.2479C23.0674 21.3145 23.2464 21.6018 23.1798 21.8932L22.1765 26.2394ZM23.3214 28.8329C23.1632 29.1077 22.8093 29.2034 22.5304 29.0452L22.4721 29.0119C22.1974 28.8496 22.1016 28.4957 22.2598 28.2168L23.9791 25.2236C24.1373 24.9489 24.4912 24.8531 24.7701 25.0113L24.8284 25.0446C25.1031 25.207 25.1989 25.5608 25.0407 25.8397L23.3214 28.8329Z" fill="#59B5C2"/>
<path d="M16.3569 25.3361C16.5026 26.0604 16.3027 26.9347 16.3027 27.7964C16.3027 28.6623 16.9522 31.4931 19.9745 31.4931C23.001 31.4931 23.1925 28.9579 23.6504 28.2085C24.1084 27.4592 23.538 26.202 23.0968 26.7598C22.4973 27.5175 22.0352 27.3926 22.285 25.9314C22.4723 24.8448 21.3774 24.3203 21.1818 25.3028C21.0319 26.0604 20.7821 25.9022 20.8196 25.0613C20.8612 24.0539 19.6914 23.9415 19.6331 25.0904C19.5873 25.923 19.3126 25.5692 19.2252 25.0072C19.1544 24.5243 17.8847 24.1704 17.9971 24.9073C18.1802 26.0729 17.943 26.3976 17.5516 25.1321C17.306 24.3328 16.2111 24.6159 16.3569 25.3361Z" fill="#59B5C2"/>
<path d="M22.4134 27.197C22.3218 27.1595 22.2593 27.0471 22.2302 26.8556C21.6515 26.9347 20.8855 27.0929 20.2819 27.684C19.4993 28.4542 19.366 29.2868 19.3702 29.8405C19.3785 30.2901 19.62 30.5024 19.6908 29.8405C19.7823 28.9995 20.3777 27.3385 22.4134 27.197Z" fill="#59B5C2"/>
</svg>
