<svg width="297" height="38" viewBox="0 0 297 38" fill="none" xmlns="http://www.w3.org/2000/svg">
<path d="M40.9307 11.6455C40.9307 5.42598 35.8768 0.384583 29.6406 0.384583C25.8564 0.384583 22.5135 2.24961 20.4653 5.0971C18.4171 2.24961 15.0743 0.384583 11.2901 0.384583C5.05389 0.384583 -9.65206e-08 5.42598 -2.15597e-07 11.6455C-2.32415e-07 12.5239 0.1124 13.3773 0.303899 14.2016C1.87335 23.9139 12.7013 34.159 20.4653 36.9691C28.2252 34.159 39.0573 23.9139 40.6226 14.2016C40.8183 13.3773 40.9307 12.5239 40.9307 11.6455Z" fill="#ED9D8C"/>
<path d="M16.0778 21.874C16.236 22.4693 15.8863 23.0813 15.2951 23.2395L15.0703 23.3019C14.4792 23.4601 13.8714 23.1063 13.7132 22.5109L11.7482 15.1466C11.5942 14.5513 11.9439 13.9393 12.535 13.777L12.7557 13.7187C13.351 13.5605 13.9588 13.9144 14.117 14.5097L16.0778 21.874ZM19.0127 20.6751C19.1126 21.3078 18.6838 21.899 18.0552 21.9947L17.9053 22.0197C17.2767 22.1155 16.6897 21.6867 16.594 21.0539L15.1619 11.7704C15.062 11.1418 15.4949 10.5506 16.1194 10.4549L16.2693 10.4299C16.8979 10.33 17.4849 10.763 17.5806 11.3916L19.0127 20.6751ZM21.8727 20.6043C21.8352 21.2287 21.3023 21.7033 20.6862 21.67L20.5363 21.6575C19.916 21.6242 19.4415 21.0872 19.4789 20.4669L20.0035 11.2875C20.0368 10.6672 20.5696 10.1885 21.1899 10.2259L21.3398 10.2343C21.9601 10.2676 22.4305 10.8046 22.3972 11.4249L21.8727 20.6043ZM24.6827 21.8116C24.5495 22.3902 23.975 22.7524 23.3963 22.6192L23.0966 22.5484C22.5221 22.4152 22.1641 21.8365 22.2973 21.2579L24.2997 12.5531C24.4329 11.9744 25.0074 11.6122 25.586 11.7496L25.8858 11.8162C26.4603 11.9536 26.8183 12.5322 26.6851 13.1109L24.6827 21.8116ZM26.9723 26.9987C26.6518 27.5523 25.9441 27.7438 25.3904 27.4233L25.2738 27.3567C24.7201 27.032 24.5328 26.3201 24.8534 25.7664L28.2878 19.78C28.6042 19.2222 29.3161 19.0307 29.8656 19.3512L29.9863 19.422C30.54 19.7426 30.7274 20.4544 30.4068 21.0123L26.9723 26.9987Z" fill="white"/>
<path d="M13.0428 20.0049C13.3384 21.4495 12.9346 23.1979 12.9346 24.9297C12.9346 26.6574 14.2334 32.3191 20.2823 32.3191C26.327 32.3191 26.71 27.2485 27.63 25.7498C28.5458 24.2512 27.4052 21.7367 26.5185 22.8524C25.3195 24.3636 24.3953 24.1179 24.8991 21.1955C25.2737 19.0183 23.084 17.965 22.6927 19.93C22.3888 21.4495 21.8975 21.1331 21.9641 19.4554C22.0516 17.4322 19.7119 17.2115 19.5912 19.5095C19.508 21.1789 18.9501 20.467 18.7836 19.343C18.6421 18.3772 16.0943 17.6653 16.3274 19.1473C16.6896 21.4786 16.215 22.1239 15.4324 19.5928C14.9411 17.9942 12.7514 18.5603 13.0428 20.0049Z" fill="white"/>
<path d="M25.1568 23.7307C24.9736 23.6558 24.8446 23.431 24.7904 23.0438C23.6331 23.202 22.1011 23.5184 20.8939 24.7049C19.3286 26.241 19.0621 27.9062 19.0746 29.0177C19.083 29.9169 19.57 30.3416 19.7116 29.0136C19.8947 27.3317 21.0854 24.0055 25.1568 23.7307Z" fill="white"/>
<path d="M17.872 26.6531C17.9553 26.9528 17.7762 27.2567 17.4807 27.34L17.3724 27.3691C17.0727 27.4482 16.7688 27.2734 16.6897 26.9737L15.7114 23.2936C15.6323 22.998 15.8071 22.6899 16.1027 22.6108L16.2151 22.5817C16.5107 22.5026 16.8146 22.6774 16.8937 22.9772L17.872 26.6531ZM19.3415 26.0578C19.3915 26.3742 19.175 26.6698 18.8628 26.7156L18.7879 26.728C18.4756 26.778 18.1801 26.5615 18.1301 26.2451L17.4141 21.6075C17.3683 21.2953 17.5806 20.9997 17.8928 20.9498L17.9719 20.9373C18.2841 20.8873 18.5755 21.1038 18.6255 21.4202L19.3415 26.0578ZM20.7695 26.0203C20.7528 26.3326 20.4864 26.5698 20.1783 26.5532L20.1034 26.549C19.7911 26.5324 19.558 26.2659 19.5747 25.9537L19.8369 21.3661C19.8536 21.0539 20.12 20.8166 20.4281 20.8332L20.503 20.8415C20.8152 20.8582 21.0484 21.1246 21.0317 21.4369L20.7695 26.0203ZM22.1765 26.624C22.1099 26.9154 21.8227 27.0944 21.5313 27.0278L21.3856 26.9945C21.0942 26.9279 20.9152 26.6365 20.9818 26.3492L21.985 21.9989C22.0517 21.7116 22.3389 21.5284 22.6262 21.5951L22.776 21.6325C23.0674 21.6991 23.2464 21.9864 23.1798 22.2778L22.1765 26.624ZM23.3214 29.2175C23.1632 29.4923 22.8093 29.588 22.5304 29.4298L22.4721 29.3965C22.1974 29.2342 22.1016 28.8803 22.2598 28.6014L23.9791 25.6082C24.1373 25.3334 24.4912 25.2377 24.7701 25.3959L24.8284 25.4292C25.1031 25.5915 25.1989 25.9454 25.0407 26.2243L23.3214 29.2175Z" fill="#59B5C2"/>
<path d="M16.3569 25.7206C16.5026 26.445 16.3027 27.3192 16.3027 28.181C16.3027 29.0469 16.9522 31.8777 19.9745 31.8777C23.001 31.8777 23.1925 29.3425 23.6504 28.5931C24.1084 27.8438 23.538 26.5865 23.0968 27.1444C22.4973 27.9021 22.0352 27.7772 22.285 26.316C22.4723 25.2294 21.3774 24.7049 21.1818 25.6873C21.0319 26.445 20.7821 26.2868 20.8196 25.4459C20.8612 24.4384 19.6914 24.326 19.6331 25.475C19.5873 26.3076 19.3126 25.9538 19.2252 25.3918C19.1544 24.9089 17.8847 24.555 17.9971 25.2919C18.1802 26.4575 17.943 26.7822 17.5516 25.5167C17.306 24.7174 16.2111 25.0004 16.3569 25.7206Z" fill="#59B5C2"/>
<path d="M22.4134 27.5815C22.3218 27.5441 22.2593 27.4317 22.2302 27.2402C21.6515 27.3193 20.8855 27.4775 20.2819 28.0686C19.4993 28.8388 19.366 29.6714 19.3702 30.2251C19.3785 30.6747 19.62 30.887 19.6908 30.2251C19.7823 29.3841 20.3777 27.7231 22.4134 27.5815Z" fill="#59B5C2"/>
<path d="M46.8047 7.60547H49.1484V22H46.8047V7.60547ZM51.1406 7.60547C52.3516 7.60547 53.4128 7.80078 54.3242 8.19141C55.2487 8.56901 56.0104 9.07682 56.6094 9.71484C57.2214 10.3529 57.6771 11.082 57.9766 11.9023C58.276 12.7096 58.4258 13.543 58.4258 14.4023C58.4258 15.5872 58.2956 16.6029 58.0352 17.4492C57.7878 18.2826 57.4688 18.9857 57.0781 19.5586C56.6875 20.1185 56.2448 20.5612 55.75 20.8867C55.2682 21.2122 54.7995 21.4596 54.3438 21.6289C53.888 21.7852 53.4714 21.8893 53.0938 21.9414C52.7161 21.9805 52.4362 22 52.2539 22H49.9492V20.2812H51.4727C53.0612 20.2812 54.207 19.7734 54.9102 18.7578C55.6133 17.7422 55.9648 16.2708 55.9648 14.3438C55.9648 13.7448 55.8932 13.1523 55.75 12.5664C55.6068 11.9805 55.3268 11.4531 54.9102 10.9844C54.5065 10.5026 53.9531 10.1185 53.25 9.83203C52.5469 9.53255 51.6354 9.38281 50.5156 9.38281H49.9492V7.60547H51.1406ZM61.7266 7.60547H64.0703V22H61.7266V7.60547ZM71.4922 22H69.0117L66.2969 16.7852C66.2578 16.7852 66.2122 16.7917 66.1602 16.8047C66.1211 16.8047 66.056 16.8047 65.9648 16.8047C65.8737 16.8047 65.737 16.8047 65.5547 16.8047C65.3854 16.8047 65.1576 16.8047 64.8711 16.8047V15.0859H66.1992C66.4857 15.0859 66.7721 15.0404 67.0586 14.9492C67.3451 14.8451 67.6055 14.6823 67.8398 14.4609C68.0742 14.2396 68.263 13.9336 68.4062 13.543C68.5495 13.1393 68.6211 12.6445 68.6211 12.0586C68.6211 11.8242 68.5885 11.5573 68.5234 11.2578C68.4583 10.9453 68.3216 10.6523 68.1133 10.3789C67.918 10.0924 67.638 9.85807 67.2734 9.67578C66.9089 9.48047 66.4271 9.38281 65.8281 9.38281H64.8711V7.60547H65.8672C66.4792 7.60547 67.0846 7.70312 67.6836 7.89844C68.2826 8.09375 68.8164 8.38672 69.2852 8.77734C69.7669 9.16797 70.151 9.64323 70.4375 10.2031C70.737 10.75 70.8867 11.3685 70.8867 12.0586C70.8867 13.1003 70.6458 13.9857 70.1641 14.7148C69.6823 15.444 69.0312 15.9844 68.2109 16.3359L71.4922 22ZM83.9531 7.60547V9.5L77.0977 19.793L76.707 20.1055H83.9531V22H74.3828V20.1055L81.2383 9.8125L81.6484 9.5H74.3828V7.60547H83.9531ZM76.1406 3.44531H78.2891L78.7383 4.26562V6.21875H78.25L76.1406 3.44531ZM79.9883 3.44531H82.1562L80.0273 6.21875H79.5391V4.24609L79.9883 3.44531ZM97.4102 7.60547V9.20703H93.1133V22H90.75V9.20703H86.4531V7.60547H97.4102ZM100.262 7.60547H102.645V22H100.262V7.60547ZM108.66 15.5156H103.445V13.9141H108.66V15.5156ZM103.445 20.2227H109.266V22H103.445V20.2227ZM109.266 7.60547V9.38281H103.445V7.60547H109.266ZM117.801 7.60547H120.145V22H117.801V7.60547ZM121.941 7.60547C122.553 7.60547 123.159 7.70312 123.758 7.89844C124.357 8.09375 124.891 8.38672 125.359 8.77734C125.841 9.16797 126.225 9.64323 126.512 10.2031C126.811 10.75 126.961 11.3685 126.961 12.0586C126.961 12.7878 126.837 13.4518 126.59 14.0508C126.342 14.6367 125.997 15.1315 125.555 15.5352C125.112 15.9388 124.578 16.2513 123.953 16.4727C123.328 16.694 122.638 16.8047 121.883 16.8047H120.945V15.0859H122.293C122.579 15.0859 122.859 15.0404 123.133 14.9492C123.419 14.8451 123.68 14.6823 123.914 14.4609C124.148 14.2396 124.337 13.9336 124.48 13.543C124.624 13.1393 124.695 12.6445 124.695 12.0586C124.695 11.8242 124.663 11.5573 124.598 11.2578C124.533 10.9453 124.396 10.6523 124.188 10.3789C123.992 10.0924 123.712 9.85807 123.348 9.67578C122.983 9.48047 122.501 9.38281 121.902 9.38281H120.945V7.60547H121.941ZM141.434 22H139.012L135.281 11.2188L131.512 22H129.07L134.109 7.625H136.434L141.434 22ZM136.57 17.4297L137.137 19.0117H133.406L133.953 17.4297H136.57ZM146.863 7.60547V20.2227H153.484V22H144.48V7.60547H146.863ZM163.992 10.3789C163.693 10.0404 163.374 9.78646 163.035 9.61719C162.697 9.44792 162.332 9.35026 161.941 9.32422V7.39062C163.4 7.45573 164.624 7.97005 165.613 8.93359L163.992 10.3789ZM161.941 20.1641C162.332 20.125 162.697 20.0208 163.035 19.8516C163.387 19.6823 163.706 19.4349 163.992 19.1094L165.613 20.5352C165.118 21.0169 164.565 21.388 163.953 21.6484C163.341 21.9089 162.671 22.0586 161.941 22.0977V20.1641ZM155.613 14.7344C155.613 13.5755 155.75 12.5534 156.023 11.668C156.31 10.7826 156.701 10.0339 157.195 9.42188C157.69 8.8099 158.27 8.33464 158.934 7.99609C159.611 7.65755 160.346 7.45573 161.141 7.39062V9.34375C160.711 9.40885 160.307 9.55859 159.93 9.79297C159.552 10.0143 159.22 10.3398 158.934 10.7695C158.647 11.1992 158.419 11.7461 158.25 12.4102C158.094 13.0612 158.009 13.8359 157.996 14.7344C158.009 15.6458 158.094 16.4271 158.25 17.0781C158.419 17.7292 158.647 18.276 158.934 18.7188C159.22 19.1615 159.552 19.5 159.93 19.7344C160.32 19.9688 160.724 20.112 161.141 20.1641V22.0781C160.346 22.026 159.611 21.8307 158.934 21.4922C158.27 21.1536 157.69 20.6784 157.195 20.0664C156.701 19.4544 156.31 18.7057 156.023 17.8203C155.75 16.9219 155.613 15.8932 155.613 14.7344ZM169.031 7.60547H171.414V22H169.031V7.60547ZM177.43 15.5156H172.215V13.9141H177.43V15.5156ZM172.215 20.2227H178.035V22H172.215V20.2227ZM178.035 7.60547V9.38281H172.215V7.60547H178.035Z" fill="#353434"/>
<path d="M47.83 31.55V33.73L48.1 34.39L48.94 34.5L50.03 33.85V32.79L50.02 31.54L49.97 30.5L49.26 30.53L49.21 30.18L50.59 29.91L51.09 30.02L51.02 31.38L51.01 32.18L51.03 32.79V34.59L51.73 34.79L51.68 35.14H50.31L50.08 34.3L48.95 35.13L47.93 35.2L47.01 34.57L46.86 33.77L46.87 31.63L46.77 30.49L46.06 30.52L46.01 30.17L47.39 29.9L47.89 30.01L47.83 31.55ZM49.24 27.43L49.94 27.6L50.04 27.83L49.62 28.29L48.8 29.34L48.44 29.17L49.24 27.43ZM54.5084 35.1L53.8284 35.2L53.1184 34.96L52.7984 34.16L52.8484 32.3L52.7984 30.62L52.1084 30.52L52.0484 30.17L52.8384 29.96L53.1984 28.95H53.7084L53.6784 30.07L54.8884 30.11L54.8284 30.55L53.7784 30.62L53.7384 31.08L53.7784 34.11L53.9784 34.71L54.9184 34.46L55.0684 34.76L54.5084 35.1ZM55.5209 33.1V31.79L56.1109 30.6L57.2409 29.85L58.6109 29.8L59.8609 30.55L60.5109 31.75L60.3909 33.58L59.6509 34.76L58.1009 35.2L56.8009 34.95L55.8509 34.09L55.5209 33.1ZM56.6209 31.45L56.5709 32.57L56.6909 33.73L57.1209 34.48L58.1809 34.74L59.1609 34.31L59.4509 32.75L59.3509 31.45L58.9809 30.62L58.2509 30.25L57.2509 30.36L56.6209 31.45ZM63.8926 35.1C63.4192 35.1 62.9959 35.0033 62.6226 34.81C62.2559 34.6167 61.9659 34.3167 61.7526 33.91C61.5459 33.5033 61.4426 32.9833 61.4426 32.35C61.4426 31.69 61.5526 31.1533 61.7726 30.74C61.9926 30.3267 62.2892 30.0233 62.6626 29.83C63.0426 29.6367 63.4726 29.54 63.9526 29.54C64.2259 29.54 64.4892 29.57 64.7426 29.63C64.9959 29.6833 65.2026 29.75 65.3626 29.83L65.0926 30.56C64.9326 30.5 64.7459 30.4433 64.5326 30.39C64.3192 30.3367 64.1192 30.31 63.9326 30.31C63.5726 30.31 63.2759 30.3867 63.0426 30.54C62.8092 30.6933 62.6359 30.92 62.5226 31.22C62.4092 31.52 62.3526 31.8933 62.3526 32.34C62.3526 32.7667 62.4092 33.13 62.5226 33.43C62.6359 33.73 62.8059 33.9567 63.0326 34.11C63.2592 34.2633 63.5426 34.34 63.8826 34.34C64.1759 34.34 64.4326 34.31 64.6526 34.25C64.8792 34.19 65.0859 34.1167 65.2726 34.03V34.81C65.0926 34.9033 64.8926 34.9733 64.6726 35.02C64.4592 35.0733 64.1992 35.1 63.8926 35.1ZM63.2726 28.94C63.1859 28.7867 63.0692 28.6233 62.9226 28.45C62.7759 28.27 62.6226 28.0933 62.4626 27.92C62.3026 27.7467 62.1626 27.5967 62.0426 27.47V27.34H62.6426C62.8159 27.4533 62.9959 27.59 63.1826 27.75C63.3692 27.91 63.5459 28.08 63.7126 28.26C63.8926 28.08 64.0759 27.91 64.2626 27.75C64.4492 27.59 64.6292 27.4533 64.8026 27.34H65.4226V27.47C65.2959 27.5967 65.1492 27.7467 64.9826 27.92C64.8226 28.0933 64.6659 28.27 64.5126 28.45C64.3659 28.6233 64.2526 28.7867 64.1726 28.94H63.2726ZM66.5573 27.92L67.0173 27.7L67.4973 27.86L67.7173 28.4L67.4373 28.84L66.9673 29.03L66.5273 28.76L66.3173 28.31L66.5573 27.92ZM67.6873 31.37L67.6273 32.37L67.6573 33.34L67.6973 34.5L68.4273 34.7L68.3773 35.05L67.1973 35L65.9773 35.05L65.9973 34.7L66.6573 34.5L66.7073 33.45L66.6873 31.53L66.6373 30.49L65.9273 30.52L65.8773 30.17L67.2573 29.9L67.7573 30.01L67.6873 31.37ZM72.9377 33.52C72.9377 33.8667 72.851 34.1567 72.6777 34.39C72.5043 34.6233 72.2577 34.8 71.9377 34.92C71.6177 35.04 71.2377 35.1 70.7977 35.1C70.4243 35.1 70.101 35.07 69.8277 35.01C69.561 34.95 69.3243 34.8667 69.1177 34.76V33.96C69.331 34.0667 69.5877 34.1667 69.8877 34.26C70.1943 34.3467 70.5043 34.39 70.8177 34.39C71.2643 34.39 71.5877 34.32 71.7877 34.18C71.9877 34.0333 72.0877 33.84 72.0877 33.6C72.0877 33.4667 72.051 33.3467 71.9777 33.24C71.9043 33.1333 71.771 33.0267 71.5777 32.92C71.391 32.8133 71.121 32.6933 70.7677 32.56C70.421 32.4267 70.1243 32.2933 69.8777 32.16C69.631 32.0267 69.441 31.8667 69.3077 31.68C69.1743 31.4933 69.1077 31.2533 69.1077 30.96C69.1077 30.5067 69.291 30.1567 69.6577 29.91C70.031 29.6633 70.5177 29.54 71.1177 29.54C71.4443 29.54 71.7477 29.5733 72.0277 29.64C72.3143 29.7 72.581 29.7867 72.8277 29.9L72.5277 30.6C72.381 30.5333 72.2243 30.4767 72.0577 30.43C71.8977 30.3767 71.7343 30.3367 71.5677 30.31C71.401 30.2767 71.231 30.26 71.0577 30.26C70.6977 30.26 70.421 30.32 70.2277 30.44C70.041 30.5533 69.9477 30.71 69.9477 30.91C69.9477 31.0567 69.991 31.1833 70.0777 31.29C70.1643 31.39 70.3077 31.49 70.5077 31.59C70.7143 31.6833 70.9877 31.7967 71.3277 31.93C71.6677 32.0567 71.9577 32.1867 72.1977 32.32C72.4377 32.4533 72.621 32.6167 72.7477 32.81C72.8743 32.9967 72.9377 33.2333 72.9377 33.52ZM70.5377 28.94C70.451 28.7867 70.3343 28.6233 70.1877 28.45C70.041 28.27 69.8877 28.0933 69.7277 27.92C69.5677 27.7467 69.4277 27.5967 69.3077 27.47V27.34H69.9077C70.081 27.4533 70.261 27.59 70.4477 27.75C70.6343 27.91 70.811 28.08 70.9777 28.26C71.1577 28.08 71.341 27.91 71.5277 27.75C71.7143 27.59 71.8943 27.4533 72.0677 27.34H72.6877V27.47C72.561 27.5967 72.4143 27.7467 72.2477 27.92C72.0877 28.0933 71.931 28.27 71.7777 28.45C71.631 28.6233 71.5177 28.7867 71.4377 28.94H70.5377ZM75.9928 35.1L75.3128 35.2L74.6028 34.96L74.2828 34.16L74.3328 32.3L74.2828 30.62L73.5928 30.52L73.5328 30.17L74.3228 29.96L74.6828 28.95H75.1928L75.1628 30.07L76.3728 30.11L76.3128 30.55L75.2628 30.62L75.2228 31.08L75.2628 34.11L75.4628 34.71L76.4028 34.46L76.5528 34.76L75.9928 35.1ZM79.5352 29.54C79.9952 29.54 80.3886 29.64 80.7152 29.84C81.0486 30.04 81.3019 30.3233 81.4752 30.69C81.6552 31.05 81.7452 31.4733 81.7452 31.96V32.49H78.0752C78.0886 33.0967 78.2419 33.56 78.5352 33.88C78.8352 34.1933 79.2519 34.35 79.7852 34.35C80.1252 34.35 80.4252 34.32 80.6852 34.26C80.9519 34.1933 81.2252 34.1 81.5052 33.98V34.75C81.2319 34.87 80.9619 34.9567 80.6952 35.01C80.4286 35.07 80.1119 35.1 79.7452 35.1C79.2386 35.1 78.7886 34.9967 78.3952 34.79C78.0086 34.5833 77.7052 34.2767 77.4852 33.87C77.2719 33.4567 77.1652 32.9533 77.1652 32.36C77.1652 31.7733 77.2619 31.27 77.4552 30.85C77.6552 30.43 77.9319 30.1067 78.2852 29.88C78.6452 29.6533 79.0619 29.54 79.5352 29.54ZM79.5252 30.26C79.1052 30.26 78.7719 30.3967 78.5252 30.67C78.2852 30.9367 78.1419 31.31 78.0952 31.79H80.8252C80.8252 31.4833 80.7786 31.2167 80.6852 30.99C80.5919 30.7633 80.4486 30.5867 80.2552 30.46C80.0686 30.3267 79.8252 30.26 79.5252 30.26ZM79.0052 28.94C78.9186 28.7867 78.8019 28.6233 78.6552 28.45C78.5086 28.27 78.3552 28.0933 78.1952 27.92C78.0352 27.7467 77.8952 27.5967 77.7752 27.47V27.34H78.3752C78.5486 27.4533 78.7286 27.59 78.9152 27.75C79.1019 27.91 79.2786 28.08 79.4452 28.26C79.6252 28.08 79.8086 27.91 79.9952 27.75C80.1819 27.59 80.3619 27.4533 80.5352 27.34H81.1552V27.47C81.0286 27.5967 80.8819 27.7467 80.7152 27.92C80.5552 28.0933 80.3986 28.27 80.2452 28.45C80.0986 28.6233 79.9852 28.7867 79.9052 28.94H79.0052ZM86.4828 30.45H86.5528L87.6228 29.8L88.7328 29.92L89.4628 30.44L90.0428 31.63L90.0528 33.33L89.6728 34.12L88.5228 35.05L87.4128 35.2L86.4628 34.95L86.4928 35.84L86.5728 37L87.3028 37.2L87.2528 37.55L86.0328 37.5L84.8128 37.55L84.8328 37.2L85.4928 37L85.5428 35.95L85.5828 33.76L85.5228 31.53L85.4728 30.46L84.7628 30.49L84.7128 30.14L86.0928 29.87L86.4728 29.98L86.4828 30.45ZM86.4728 34.4L87.5528 34.75L88.1828 34.57L88.9528 33.75L89.0928 32.6L88.7928 30.92L87.9028 30.39L86.5028 30.87L86.5228 31.37L86.4728 34.4ZM92.522 30.82H92.562L93.182 30.11L93.862 29.81L94.612 30L94.442 31.49L94.092 31.42L93.842 30.39L93.192 30.6L92.482 31.43L92.432 32.37L92.462 33.34L92.502 34.5L93.502 34.7L93.452 35.05L92.002 35L90.782 35.05L90.802 34.7L91.462 34.5L91.512 33.45L91.492 31.53L91.442 30.49L90.732 30.52L90.682 30.17L92.062 29.9L92.562 30.01L92.522 30.82ZM95.1498 33.1V31.79L95.7398 30.6L96.8698 29.85L98.2398 29.8L99.4898 30.55L100.14 31.75L100.02 33.58L99.2798 34.76L97.7298 35.2L96.4298 34.95L95.4798 34.09L95.1498 33.1ZM96.2498 31.45L96.1998 32.57L96.3198 33.73L96.7498 34.48L97.8098 34.74L98.7898 34.31L99.0798 32.75L98.9798 31.45L98.6098 30.62L97.8798 30.25L96.8798 30.36L96.2498 31.45ZM104.915 30.82H104.955L105.575 30.11L106.255 29.81L107.005 30L106.835 31.49L106.485 31.42L106.235 30.39L105.585 30.6L104.875 31.43L104.825 32.37L104.855 33.34L104.895 34.5L105.895 34.7L105.845 35.05L104.395 35L103.175 35.05L103.195 34.7L103.855 34.5L103.905 33.45L103.885 31.53L103.835 30.49L103.125 30.52L103.075 30.17L104.455 29.9L104.955 30.01L104.915 30.82ZM107.542 33.1V31.79L108.132 30.6L109.262 29.85L110.632 29.8L111.882 30.55L112.532 31.75L112.412 33.58L111.672 34.76L110.122 35.2L108.822 34.95L107.872 34.09L107.542 33.1ZM108.642 31.45L108.592 32.57L108.712 33.73L109.142 34.48L110.202 34.74L111.182 34.31L111.472 32.75L111.372 31.45L111.002 30.62L110.272 30.25L109.272 30.36L108.642 31.45ZM116.944 34.55H116.894L115.784 35.2L114.674 35.08L113.944 34.56L113.364 33.37L113.354 31.67L113.734 30.88L114.884 29.95L115.994 29.8L116.964 30.05L116.904 28.14L116.074 28.06L116.124 27.71L117.504 27.44L117.904 27.55L117.834 31.42L117.904 34.59L118.594 34.69L118.524 35.02L117.134 35.14L116.944 34.55ZM115.474 34.69L116.944 34.13L116.964 30.6L115.854 30.25L115.224 30.43L114.454 31.25L114.314 32.4L114.614 34.08L115.474 34.69ZM119.633 27.92L120.093 27.7L120.573 27.86L120.793 28.4L120.513 28.84L120.043 29.03L119.603 28.76L119.393 28.31L119.633 27.92ZM120.763 31.37L120.703 32.37L120.733 33.34L120.773 34.5L121.503 34.7L121.453 35.05L120.273 35L119.053 35.05L119.073 34.7L119.733 34.5L119.783 33.45L119.763 31.53L119.713 30.49L119.003 30.52L118.953 30.17L120.333 29.9L120.833 30.01L120.763 31.37ZM124.674 35.1C124.2 35.1 123.777 35.0033 123.404 34.81C123.037 34.6167 122.747 34.3167 122.534 33.91C122.327 33.5033 122.224 32.9833 122.224 32.35C122.224 31.69 122.334 31.1533 122.554 30.74C122.774 30.3267 123.07 30.0233 123.444 29.83C123.824 29.6367 124.254 29.54 124.734 29.54C125.007 29.54 125.27 29.57 125.524 29.63C125.777 29.6833 125.984 29.75 126.144 29.83L125.874 30.56C125.714 30.5 125.527 30.4433 125.314 30.39C125.1 30.3367 124.9 30.31 124.714 30.31C124.354 30.31 124.057 30.3867 123.824 30.54C123.59 30.6933 123.417 30.92 123.304 31.22C123.19 31.52 123.134 31.8933 123.134 32.34C123.134 32.7667 123.19 33.13 123.304 33.43C123.417 33.73 123.587 33.9567 123.814 34.11C124.04 34.2633 124.324 34.34 124.664 34.34C124.957 34.34 125.214 34.31 125.434 34.25C125.66 34.19 125.867 34.1167 126.054 34.03V34.81C125.874 34.9033 125.674 34.9733 125.454 35.02C125.24 35.0733 124.98 35.1 124.674 35.1ZM124.054 28.94C123.967 28.7867 123.85 28.6233 123.704 28.45C123.557 28.27 123.404 28.0933 123.244 27.92C123.084 27.7467 122.944 27.5967 122.824 27.47V27.34H123.424C123.597 27.4533 123.777 27.59 123.964 27.75C124.15 27.91 124.327 28.08 124.494 28.26C124.674 28.08 124.857 27.91 125.044 27.75C125.23 27.59 125.41 27.4533 125.584 27.34H126.204V27.47C126.077 27.5967 125.93 27.7467 125.764 27.92C125.604 28.0933 125.447 28.27 125.294 28.45C125.147 28.6233 125.034 28.7867 124.954 28.94H124.054ZM127.869 32.31L127.859 32.4L128.129 33.81L128.919 34.59L129.839 34.69L130.779 34.19L130.959 34.45L130.169 35.08L129.229 35.2L128.249 34.97L127.399 34.26L126.889 32.76L127.059 31.42L127.579 30.48L128.629 29.9L129.509 29.79L130.209 30.01L130.749 30.5L131.059 31.39L131.069 32.22L130.929 32.33L129.599 32.42L127.869 32.31ZM128.369 30.69L127.979 31.45L127.919 31.9L129.439 31.92L130.129 31.77L130.069 30.84L129.769 30.33L129.129 30.24L128.369 30.69ZM137.833 34.55H137.783L136.673 35.2L135.563 35.08L134.833 34.56L134.253 33.37L134.243 31.67L134.623 30.88L135.773 29.95L136.883 29.8L137.853 30.05L137.793 28.14L136.963 28.06L137.013 27.71L138.393 27.44L138.793 27.55L138.723 31.42L138.793 34.59L139.483 34.69L139.413 35.02L138.023 35.14L137.833 34.55ZM136.363 34.69L137.833 34.13L137.853 30.6L136.743 30.25L136.113 30.43L135.343 31.25L135.203 32.4L135.503 34.08L136.363 34.69ZM142.582 29.54C143.042 29.54 143.435 29.64 143.762 29.84C144.095 30.04 144.349 30.3233 144.522 30.69C144.702 31.05 144.792 31.4733 144.792 31.96V32.49H141.122C141.135 33.0967 141.289 33.56 141.582 33.88C141.882 34.1933 142.299 34.35 142.832 34.35C143.172 34.35 143.472 34.32 143.732 34.26C143.999 34.1933 144.272 34.1 144.552 33.98V34.75C144.279 34.87 144.009 34.9567 143.742 35.01C143.475 35.07 143.159 35.1 142.792 35.1C142.285 35.1 141.835 34.9967 141.442 34.79C141.055 34.5833 140.752 34.2767 140.532 33.87C140.319 33.4567 140.212 32.9533 140.212 32.36C140.212 31.7733 140.309 31.27 140.502 30.85C140.702 30.43 140.979 30.1067 141.332 29.88C141.692 29.6533 142.109 29.54 142.582 29.54ZM142.572 30.26C142.152 30.26 141.819 30.3967 141.572 30.67C141.332 30.9367 141.189 31.31 141.142 31.79H143.872C143.872 31.4833 143.825 31.2167 143.732 30.99C143.639 30.7633 143.495 30.5867 143.302 30.46C143.115 30.3267 142.872 30.26 142.572 30.26ZM142.052 28.94C141.965 28.7867 141.849 28.6233 141.702 28.45C141.555 28.27 141.402 28.0933 141.242 27.92C141.082 27.7467 140.942 27.5967 140.822 27.47V27.34H141.422C141.595 27.4533 141.775 27.59 141.962 27.75C142.149 27.91 142.325 28.08 142.492 28.26C142.672 28.08 142.855 27.91 143.042 27.75C143.229 27.59 143.409 27.4533 143.582 27.34H144.202V27.47C144.075 27.5967 143.929 27.7467 143.762 27.92C143.602 28.0933 143.445 28.27 143.292 28.45C143.145 28.6233 143.032 28.7867 142.952 28.94H142.052ZM147.917 35.1L147.237 35.2L146.527 34.96L146.207 34.16L146.257 32.3L146.207 30.62L145.517 30.52L145.457 30.17L146.247 29.96L146.607 28.95H147.117L147.087 30.07L148.297 30.11L148.237 30.55L147.187 30.62L147.147 31.08L147.187 34.11L147.387 34.71L148.327 34.46L148.477 34.76L147.917 35.1ZM150.529 31.37L150.469 32.37L150.499 33.34L150.539 34.5L151.269 34.7L151.219 35.05L150.039 35L148.819 35.05L148.839 34.7L149.499 34.5L149.549 33.45L149.529 31.53L149.479 30.49L148.769 30.52L148.719 30.17L150.099 29.9L150.599 30.01L150.529 31.37ZM150.199 27.43L150.899 27.6L150.999 27.83L150.579 28.29L149.759 29.34L149.399 29.17L150.199 27.43ZM154.883 34.61L155.713 34.74L156.643 34.61L156.863 33.93L156.593 33.41L154.733 32.28L154.333 31.65L154.313 30.59L155.023 29.99L156.073 29.8L157.543 30.1L157.333 31.57L156.913 31.43L156.723 30.39L156.033 30.26L155.282 30.43L155.093 30.98L155.333 31.57L157.253 32.67L157.723 33.26L157.763 34.2L157.083 35L155.883 35.2L155.053 35.16L154.123 34.8L154.373 33.36L154.803 33.5L154.883 34.61ZM162.352 30.45H162.422L163.492 29.8L164.602 29.92L165.332 30.44L165.912 31.63L165.922 33.33L165.542 34.12L164.392 35.05L163.282 35.2L162.332 34.95L162.362 35.84L162.442 37L163.172 37.2L163.122 37.55L161.902 37.5L160.682 37.55L160.702 37.2L161.362 37L161.412 35.95L161.452 33.76L161.392 31.53L161.342 30.46L160.632 30.49L160.582 30.14L161.962 29.87L162.342 29.98L162.352 30.45ZM162.342 34.4L163.422 34.75L164.052 34.57L164.822 33.75L164.962 32.6L164.662 30.92L163.772 30.39L162.372 30.87L162.392 31.37L162.342 34.4ZM166.761 33.1V31.79L167.351 30.6L168.481 29.85L169.851 29.8L171.101 30.55L171.751 31.75L171.631 33.58L170.891 34.76L169.341 35.2L168.041 34.95L167.091 34.09L166.761 33.1ZM167.861 31.45L167.811 32.57L167.931 33.73L168.361 34.48L169.421 34.74L170.401 34.31L170.691 32.75L170.591 31.45L170.221 30.62L169.491 30.25L168.491 30.36L167.861 31.45ZM174.153 30.82H174.193L174.813 30.11L175.493 29.81L176.243 30L176.073 31.49L175.723 31.42L175.473 30.39L174.823 30.6L174.113 31.43L174.063 32.37L174.093 33.34L174.133 34.5L175.133 34.7L175.083 35.05L173.633 35L172.413 35.05L172.433 34.7L173.093 34.5L173.143 33.45L173.123 31.53L173.073 30.49L172.363 30.52L172.313 30.17L173.693 29.9L174.193 30.01L174.153 30.82ZM178.269 31.55V33.73L178.539 34.39L179.379 34.5L180.469 33.85V32.79L180.459 31.54L180.409 30.5L179.699 30.53L179.649 30.18L181.029 29.91L181.529 30.02L181.459 31.38L181.449 32.18L181.469 32.79V34.59L182.169 34.79L182.119 35.14H180.749L180.519 34.3L179.389 35.13L178.369 35.2L177.449 34.57L177.299 33.77L177.309 31.63L177.209 30.49L176.499 30.52L176.449 30.17L177.829 29.9L178.329 30.01L178.269 31.55ZM186.118 30.37L184.858 30.27L183.958 31.23L183.698 32.27L183.828 33.33L184.468 34.49L185.698 34.69L186.638 34.19L186.818 34.45L186.028 35.08L185.088 35.2L183.658 34.79L182.768 33.34L182.758 31.67L183.438 30.48L184.488 29.93L185.398 29.8L186.928 30L186.628 31.57L186.298 31.62L186.118 30.37ZM189.062 28.91L189.032 30.55L190.142 29.87L191.162 29.8L192.082 30.43L192.232 31.23L192.212 33.34L192.292 34.51L193.002 34.7L192.952 35.05L191.772 35L190.552 35.05L190.572 34.7L191.232 34.5L191.302 33.45L191.262 31.27L190.992 30.61L190.142 30.46L189.022 31.03L189.002 32.37L189.022 33.34L189.052 34.5L189.782 34.7L189.732 35.05L188.552 35L187.332 35.05L187.352 34.7L188.012 34.5L188.102 33.45L188.062 29.07L187.992 28.03L187.282 28.06L187.232 27.71L188.612 27.44L189.112 27.55L189.062 28.91ZM193.548 33.1V31.79L194.138 30.6L195.268 29.85L196.638 29.8L197.888 30.55L198.538 31.75L198.418 33.58L197.678 34.76L196.128 35.2L194.828 34.95L193.878 34.09L193.548 33.1ZM194.648 31.45L194.598 32.57L194.718 33.73L195.148 34.48L196.208 34.74L197.188 34.31L197.478 32.75L197.378 31.45L197.008 30.62L196.278 30.25L195.278 30.36L194.648 31.45ZM200.75 31.55V33.73L201.02 34.39L201.86 34.5L202.95 33.85V32.79L202.94 31.54L202.89 30.5L202.18 30.53L202.13 30.18L203.51 29.91L204.01 30.02L203.94 31.38L203.93 32.18L203.95 32.79V34.59L204.65 34.79L204.6 35.14H203.23L203 34.3L201.87 35.13L200.85 35.2L199.93 34.57L199.78 33.77L199.79 31.63L199.69 30.49L198.98 30.52L198.93 30.17L200.31 29.9L200.81 30.01L200.75 31.55ZM208.701 34.44L209.451 34.63L210.461 34.05L210.421 32.7H209.551L208.781 33.01L208.431 33.63L208.701 34.44ZM211.281 33.18L211.351 34.59L212.041 34.69L211.971 35.02L210.581 35.14L210.451 34.55H210.401L209.411 35.14H208.371L207.671 34.63L207.461 33.65L207.901 32.87L209.101 32.35L210.421 32.3L210.381 31.05L210.191 30.43L209.381 30.2L208.411 30.43L208.381 31.49L207.991 31.57L207.731 30.2L208.881 29.86L210.171 29.8L210.951 30.18L211.271 31.04L211.281 33.18ZM213.982 31.55V33.73L214.252 34.39L215.092 34.5L216.182 33.85V32.79L216.172 31.54L216.122 30.5L215.412 30.53L215.362 30.18L216.742 29.91L217.242 30.02L217.172 31.38L217.162 32.18L217.182 32.79V34.59L217.882 34.79L217.832 35.14H216.462L216.232 34.3L215.102 35.13L214.082 35.2L213.162 34.57L213.012 33.77L213.022 31.63L212.922 30.49L212.212 30.52L212.162 30.17L213.542 29.9L214.042 30.01L213.982 31.55ZM220.661 35.1L219.981 35.2L219.271 34.96L218.951 34.16L219.001 32.3L218.951 30.62L218.261 30.52L218.201 30.17L218.991 29.96L219.351 28.95H219.861L219.831 30.07L221.041 30.11L220.981 30.55L219.931 30.62L219.891 31.08L219.931 34.11L220.131 34.71L221.071 34.46L221.221 34.76L220.661 35.1ZM222.143 27.92L222.603 27.7L223.083 27.86L223.303 28.4L223.023 28.84L222.553 29.03L222.113 28.76L221.903 28.31L222.143 27.92ZM223.273 31.37L223.213 32.37L223.243 33.34L223.283 34.5L224.013 34.7L223.963 35.05L222.783 35L221.563 35.05L221.583 34.7L222.243 34.5L222.293 33.45L222.273 31.53L222.223 30.49L221.513 30.52L221.463 30.17L222.843 29.9L223.343 30.01L223.273 31.37ZM225.254 34.61L226.084 34.74L227.014 34.61L227.234 33.93L226.964 33.41L225.104 32.28L224.704 31.65L224.684 30.59L225.394 29.99L226.444 29.8L227.914 30.1L227.704 31.57L227.284 31.43L227.094 30.39L226.404 30.26L225.654 30.43L225.464 30.98L225.704 31.57L227.624 32.67L228.094 33.26L228.134 34.2L227.454 35L226.254 35.2L225.424 35.16L224.494 34.8L224.744 33.36L225.174 33.5L225.254 34.61ZM231.11 35.1L230.43 35.2L229.72 34.96L229.4 34.16L229.45 32.3L229.4 30.62L228.71 30.52L228.65 30.17L229.44 29.96L229.8 28.95H230.31L230.28 30.07L231.49 30.11L231.43 30.55L230.38 30.62L230.34 31.08L230.38 34.11L230.58 34.71L231.52 34.46L231.67 34.76L231.11 35.1ZM232.592 27.92L233.052 27.7L233.532 27.86L233.752 28.4L233.472 28.84L233.002 29.03L232.562 28.76L232.352 28.31L232.592 27.92ZM233.722 31.37L233.662 32.37L233.692 33.34L233.732 34.5L234.462 34.7L234.412 35.05L233.232 35L232.012 35.05L232.032 34.7L232.692 34.5L232.742 33.45L232.722 31.53L232.672 30.49L231.962 30.52L231.912 30.17L233.292 29.9L233.792 30.01L233.722 31.37ZM238.413 30.37L237.153 30.27L236.253 31.23L235.993 32.27L236.123 33.33L236.763 34.49L237.993 34.69L238.933 34.19L239.113 34.45L238.323 35.08L237.383 35.2L235.953 34.79L235.063 33.34L235.053 31.67L235.733 30.48L236.783 29.93L237.693 29.8L239.223 30L238.923 31.57L238.593 31.62L238.413 30.37ZM242.667 31.08L243.127 30.41L242.457 30.3L242.507 29.95L243.557 30L244.477 29.95L244.457 30.3L243.757 30.52L242.327 32.06L243.157 33.23L244.187 34.5L244.777 34.7L244.727 35.05L243.687 35L242.737 35.05L242.757 34.7L243.237 34.67L242.967 34.17L241.807 32.63H241.317L241.337 33.34L241.357 34.5L242.047 34.7L241.987 35.05L240.877 35L239.597 35.05L239.637 34.7L240.337 34.53L240.367 33.45L240.407 31.26L240.367 29.03L240.317 28.03L239.607 28.06L239.557 27.71L240.937 27.44L241.437 27.55L241.367 28.87L241.307 32.24H241.617L242.667 31.08ZM245.837 32.31L245.827 32.4L246.097 33.81L246.887 34.59L247.807 34.69L248.747 34.19L248.927 34.45L248.137 35.08L247.197 35.2L246.217 34.97L245.367 34.26L244.857 32.76L245.027 31.42L245.547 30.48L246.597 29.9L247.477 29.79L248.177 30.01L248.717 30.5L249.027 31.39L249.037 32.22L248.897 32.33L247.567 32.42L245.837 32.31ZM246.337 30.69L245.947 31.45L245.887 31.9L247.407 31.92L248.097 31.77L248.037 30.84L247.737 30.33L247.097 30.24L246.337 30.69ZM247.837 27.44L248.537 27.61L248.637 27.84L248.217 28.3L247.397 29.35L247.037 29.18L247.837 27.44ZM251.278 28.91L251.248 30.55L252.358 29.87L253.378 29.8L254.298 30.43L254.448 31.23L254.428 33.34L254.508 34.51L255.218 34.7L255.168 35.05L253.988 35L252.768 35.05L252.788 34.7L253.448 34.5L253.518 33.45L253.478 31.27L253.208 30.61L252.358 30.46L251.238 31.03L251.218 32.37L251.238 33.34L251.268 34.5L251.998 34.7L251.948 35.05L250.768 35L249.548 35.05L249.568 34.7L250.228 34.5L250.318 33.45L250.278 29.07L250.208 28.03L249.498 28.06L249.448 27.71L250.828 27.44L251.328 27.55L251.278 28.91ZM255.765 33.1V31.79L256.355 30.6L257.485 29.85L258.855 29.8L260.105 30.55L260.755 31.75L260.635 33.58L259.895 34.76L258.345 35.2L257.045 34.95L256.095 34.09L255.765 33.1ZM256.865 31.45L256.815 32.57L256.935 33.73L257.365 34.48L258.425 34.74L259.405 34.31L259.695 32.75L259.595 31.45L259.225 30.62L258.495 30.25L257.495 30.36L256.865 31.45ZM264.58 34.61L265.41 34.74L266.34 34.61L266.56 33.93L266.29 33.41L264.43 32.28L264.03 31.65L264.01 30.59L264.72 29.99L265.77 29.8L267.24 30.1L267.03 31.57L266.61 31.43L266.42 30.39L265.73 30.26L264.98 30.43L264.79 30.98L265.03 31.57L266.95 32.67L267.42 33.26L267.46 34.2L266.78 35L265.58 35.2L264.75 35.16L263.82 34.8L264.07 33.36L264.5 33.5L264.58 34.61ZM269.676 30.45H269.746L270.816 29.8L271.926 29.92L272.656 30.44L273.236 31.63L273.246 33.33L272.866 34.12L271.716 35.05L270.606 35.2L269.656 34.95L269.686 35.84L269.766 37L270.496 37.2L270.446 37.55L269.226 37.5L268.006 37.55L268.026 37.2L268.686 37L268.736 35.95L268.776 33.76L268.716 31.53L268.666 30.46L267.956 30.49L267.906 30.14L269.286 29.87L269.666 29.98L269.676 30.45ZM269.666 34.4L270.746 34.75L271.376 34.57L272.146 33.75L272.286 32.6L271.986 30.92L271.096 30.39L269.696 30.87L269.716 31.37L269.666 34.4ZM275.085 32.31L275.075 32.4L275.345 33.81L276.135 34.59L277.055 34.69L277.995 34.19L278.175 34.45L277.385 35.08L276.445 35.2L275.465 34.97L274.615 34.26L274.105 32.76L274.275 31.42L274.795 30.48L275.845 29.9L276.725 29.79L277.425 30.01L277.965 30.5L278.275 31.39L278.285 32.22L278.145 32.33L276.815 32.42L275.085 32.31ZM275.585 30.69L275.195 31.45L275.135 31.9L276.655 31.92L277.345 31.77L277.285 30.84L276.985 30.33L276.345 30.24L275.585 30.69ZM281.836 31.08L282.296 30.41L281.626 30.3L281.676 29.95L282.726 30L283.646 29.95L283.626 30.3L282.926 30.52L281.496 32.06L282.326 33.23L283.356 34.5L283.946 34.7L283.896 35.05L282.856 35L281.906 35.05L281.926 34.7L282.406 34.67L282.136 34.17L280.976 32.63H280.486L280.506 33.34L280.526 34.5L281.216 34.7L281.156 35.05L280.046 35L278.766 35.05L278.806 34.7L279.506 34.53L279.536 33.45L279.576 31.26L279.536 29.03L279.486 28.03L278.776 28.06L278.726 27.71L280.106 27.44L280.606 27.55L280.536 28.87L280.476 32.24H280.786L281.836 31.08ZM286.628 35.1L285.948 35.2L285.238 34.96L284.918 34.16L284.968 32.3L284.918 30.62L284.228 30.52L284.168 30.17L284.958 29.96L285.318 28.95H285.828L285.798 30.07L287.008 30.11L286.948 30.55L285.898 30.62L285.858 31.08L285.898 34.11L286.098 34.71L287.038 34.46L287.188 34.76L286.628 35.1ZM289.27 30.82H289.31L289.93 30.11L290.61 29.81L291.36 30L291.19 31.49L290.84 31.42L290.59 30.39L289.94 30.6L289.23 31.43L289.18 32.37L289.21 33.34L289.25 34.5L290.25 34.7L290.2 35.05L288.75 35L287.53 35.05L287.55 34.7L288.21 34.5L288.26 33.45L288.24 31.53L288.19 30.49L287.48 30.52L287.43 30.17L288.81 29.9L289.31 30.01L289.27 30.82ZM293.028 34.44L293.778 34.63L294.788 34.05L294.748 32.7H293.878L293.108 33.01L292.758 33.63L293.028 34.44ZM295.608 33.18L295.678 34.59L296.368 34.69L296.298 35.02L294.908 35.14L294.778 34.55H294.728L293.738 35.14H292.698L291.998 34.63L291.788 33.65L292.228 32.87L293.428 32.35L294.748 32.3L294.708 31.05L294.518 30.43L293.708 30.2L292.738 30.43L292.708 31.49L292.318 31.57L292.058 30.2L293.208 29.86L294.498 29.8L295.278 30.18L295.598 31.04L295.608 33.18Z" fill="#353434"/>
</svg>
