<svg xmlns="http://www.w3.org/2000/svg" xmlns:xlink="http://www.w3.org/1999/xlink" width="500" zoomAndPan="magnify" viewBox="0 0 375 374.999991" height="500" preserveAspectRatio="xMidYMid meet" version="1.0"><defs><clipPath id="06f0a71766"><path d="M 2 21.136719 L 373 21.136719 L 373 354 L 2 354 Z M 2 21.136719 " clip-rule="nonzero"/></clipPath><clipPath id="406e3dc19c"><path d="M 147.429688 209.347656 L 227.679688 209.347656 L 227.679688 283 L 147.429688 283 Z M 147.429688 209.347656 " clip-rule="nonzero"/></clipPath></defs><g clip-path="url(#06f0a71766)"><path fill="#ed9d8c" d="M 372.878906 123.140625 C 372.878906 66.605469 327.085938 20.773438 270.605469 20.773438 C 236.320312 20.773438 206.0625 37.714844 187.5 63.605469 C 168.9375 37.714844 138.679688 20.773438 104.402344 20.773438 C 47.914062 20.773438 2.121094 66.59375 2.121094 123.140625 C 2.121094 131.152344 3.136719 138.910156 4.878906 146.390625 C 19.078125 234.703125 117.183594 327.871094 187.5 353.453125 C 257.804688 327.871094 355.921875 234.703125 370.101562 146.398438 C 371.863281 138.921875 372.878906 131.160156 372.878906 123.140625 Z M 372.878906 123.140625 " fill-opacity="1" fill-rule="nonzero"/></g><path fill="#fafafa" d="M 148.171875 214.980469 C 149.605469 220.332031 146.4375 225.828125 141.089844 227.265625 L 139.089844 227.804688 C 133.742188 229.234375 128.246094 226.066406 126.816406 220.71875 L 109.101562 154.59375 C 107.675781 149.246094 110.847656 143.742188 116.195312 142.308594 L 118.191406 141.773438 C 123.539062 140.335938 129.03125 143.511719 130.46875 148.859375 Z M 174.683594 204.25 C 175.5625 209.910156 171.6875 215.214844 166.039062 216.085938 L 164.667969 216.304688 C 159.011719 217.175781 153.714844 213.304688 152.835938 207.648438 L 139.898438 124.289062 C 139.011719 118.628906 142.894531 113.332031 148.542969 112.449219 L 149.914062 112.234375 C 155.570312 111.355469 160.875 115.234375 161.753906 120.890625 Z M 200.476562 203.601562 C 200.15625 209.195312 195.363281 213.464844 189.765625 213.152344 L 188.417969 213.066406 C 182.816406 212.742188 178.550781 207.949219 178.871094 202.351562 L 183.609375 119.945312 C 183.933594 114.355469 188.726562 110.074219 194.324219 110.394531 L 195.671875 110.472656 C 201.265625 110.792969 205.53125 115.59375 205.21875 121.191406 Z M 225.863281 214.4375 C 224.652344 219.644531 219.46875 222.890625 214.25 221.683594 L 211.5625 221.066406 C 206.355469 219.855469 203.113281 214.660156 204.3125 209.449219 L 222.410156 131.320312 C 223.621094 126.113281 228.8125 122.867188 234.019531 124.074219 L 236.710938 124.699219 C 241.921875 125.910156 245.15625 131.109375 243.957031 136.3125 Z M 246.539062 261.007812 C 243.652344 266.003906 237.265625 267.71875 232.265625 264.832031 L 231.210938 264.214844 C 226.214844 261.328125 224.5 254.941406 227.390625 249.945312 L 258.402344 196.191406 C 261.289062 191.195312 267.679688 189.476562 272.679688 192.363281 L 273.734375 192.976562 C 278.730469 195.859375 280.441406 202.257812 277.554688 207.253906 Z M 246.539062 261.007812 " fill-opacity="1" fill-rule="nonzero"/><path fill="#fafafa" d="M 120.789062 198.214844 C 123.441406 211.175781 119.777344 226.894531 119.777344 242.429688 C 119.777344 257.960938 131.527344 308.804688 186.125 308.804688 C 240.722656 308.804688 244.175781 263.257812 252.46875 249.808594 C 260.761719 236.355469 250.429688 213.769531 242.445312 223.789062 C 231.625 237.355469 223.28125 235.144531 227.816406 208.90625 C 231.195312 189.34375 211.429688 179.902344 207.894531 197.558594 C 205.171875 211.203125 200.714844 208.355469 201.339844 193.269531 C 202.097656 175.109375 181 173.128906 179.914062 193.773438 C 179.128906 208.746094 174.113281 202.351562 172.605469 192.265625 C 171.3125 183.617188 148.339844 177.214844 150.417969 190.5 C 153.695312 211.4375 149.414062 217.234375 142.355469 194.5 C 137.902344 180.144531 118.128906 185.253906 120.789062 198.214844 Z M 120.789062 198.214844 " fill-opacity="1" fill-rule="nonzero"/><path fill="#fafafa" d="M 230.160156 231.660156 C 228.503906 230.984375 227.339844 228.96875 226.847656 225.496094 C 216.386719 226.929688 202.542969 229.757812 191.652344 240.402344 C 177.519531 254.226562 175.109375 269.167969 175.226562 279.164062 C 175.320312 287.222656 179.714844 291.039062 181.003906 279.097656 C 182.628906 264.011719 193.40625 234.136719 230.160156 231.660156 Z M 230.160156 231.660156 " fill-opacity="1" fill-rule="nonzero"/><g clip-path="url(#406e3dc19c)"><path fill="#59b5c2" d="M 166.300781 258.382812 C 166.964844 260.867188 165.492188 263.421875 163.003906 264.089844 L 162.074219 264.339844 C 159.585938 265.003906 157.03125 263.53125 156.363281 261.046875 L 148.125 230.339844 C 147.460938 227.855469 148.9375 225.296875 151.421875 224.632812 L 152.351562 224.382812 C 154.839844 223.714844 157.394531 225.191406 158.066406 227.675781 Z M 178.632812 253.402344 C 179.042969 256.027344 177.238281 258.492188 174.609375 258.898438 L 173.972656 259 C 171.34375 259.40625 168.878906 257.605469 168.46875 254.976562 L 162.449219 216.261719 C 162.039062 213.636719 163.84375 211.175781 166.472656 210.765625 L 167.109375 210.664062 C 169.742188 210.257812 172.207031 212.058594 172.617188 214.6875 Z M 190.632812 253.101562 C 190.484375 255.699219 188.253906 257.679688 185.652344 257.535156 L 185.023438 257.496094 C 182.417969 257.34375 180.433594 255.121094 180.582031 252.519531 L 182.785156 214.246094 C 182.9375 211.648438 185.167969 209.660156 187.769531 209.808594 L 188.398438 209.84375 C 191 209.996094 192.984375 212.222656 192.839844 214.824219 Z M 202.445312 258.132812 C 201.878906 260.550781 199.46875 262.058594 197.039062 261.5 L 195.789062 261.210938 C 193.367188 260.648438 191.859375 258.234375 192.417969 255.816406 L 200.835938 219.527344 C 201.398438 217.109375 203.816406 215.601562 206.238281 216.164062 L 207.492188 216.453125 C 209.914062 217.015625 211.417969 219.429688 210.859375 221.847656 Z M 212.0625 279.761719 C 210.71875 282.082031 207.746094 282.878906 205.421875 281.535156 L 204.929688 281.25 C 202.605469 279.910156 201.808594 276.941406 203.152344 274.625 L 217.582031 249.65625 C 218.921875 247.335938 221.898438 246.539062 224.222656 247.878906 L 224.714844 248.164062 C 227.039062 249.503906 227.832031 252.476562 226.492188 254.796875 Z M 212.0625 279.761719 " fill-opacity="1" fill-rule="nonzero"/></g><path fill="#59b5c2" d="M 153.5625 250.597656 C 154.796875 256.617188 153.089844 263.917969 153.089844 271.132812 C 153.089844 278.34375 158.554688 301.960938 183.957031 301.960938 C 209.355469 301.960938 210.960938 280.808594 214.820312 274.558594 C 218.679688 268.3125 213.871094 257.820312 210.15625 262.472656 C 205.125 268.777344 201.242188 267.75 203.351562 255.5625 C 204.921875 246.476562 195.726562 242.09375 194.085938 250.292969 C 192.816406 256.628906 190.742188 255.308594 191.035156 248.300781 C 191.386719 239.867188 181.570312 238.949219 181.066406 248.535156 C 180.703125 255.488281 178.367188 252.519531 177.667969 247.832031 C 177.066406 243.816406 166.378906 240.84375 167.34375 247.015625 C 168.871094 256.738281 166.875 259.429688 163.59375 248.871094 C 161.519531 242.203125 152.324219 244.578125 153.5625 250.597656 Z M 153.5625 250.597656 " fill-opacity="1" fill-rule="nonzero"/><path fill="#59b5c2" d="M 204.441406 266.128906 C 203.671875 265.816406 203.128906 264.882812 202.902344 263.269531 C 198.035156 263.933594 191.59375 265.246094 186.527344 270.191406 C 179.953125 276.613281 178.832031 283.550781 178.886719 288.191406 C 178.929688 291.9375 180.972656 293.707031 181.574219 288.160156 C 182.328125 281.15625 187.34375 267.28125 204.441406 266.128906 Z M 204.441406 266.128906 " fill-opacity="1" fill-rule="nonzero"/></svg>