<svg width="426" height="60" viewBox="0 0 426 60" fill="none" xmlns="http://www.w3.org/2000/svg">
<path d="M51.5552 8.84766H54.8364V29H51.5552V8.84766ZM57.6255 8.84766C59.3208 8.84766 60.8065 9.12109 62.0825 9.66797C63.3768 10.1966 64.4432 10.9076 65.2817 11.8008C66.1385 12.694 66.7765 13.7148 67.1958 14.8633C67.6151 15.9935 67.8247 17.1602 67.8247 18.3633C67.8247 20.0221 67.6424 21.444 67.2778 22.6289C66.9315 23.7956 66.4849 24.7799 65.938 25.582C65.3911 26.3659 64.7713 26.9857 64.0786 27.4414C63.4041 27.8971 62.7479 28.2435 62.1099 28.4805C61.4718 28.6992 60.8885 28.8451 60.3599 28.918C59.8312 28.9727 59.4393 29 59.1841 29H55.9575V26.5938H58.0903C60.3143 26.5938 61.9185 25.8828 62.9028 24.4609C63.8872 23.0391 64.3794 20.9792 64.3794 18.2812C64.3794 17.4427 64.2791 16.6133 64.0786 15.793C63.8781 14.9727 63.4862 14.2344 62.9028 13.5781C62.3377 12.9036 61.563 12.3659 60.5786 11.9648C59.5942 11.5456 58.3182 11.3359 56.7505 11.3359H55.9575V8.84766H57.6255ZM72.4458 8.84766H75.7271V29H72.4458V8.84766ZM86.1177 29H82.645L78.8442 21.6992C78.7896 21.6992 78.7257 21.7083 78.6528 21.7266C78.5981 21.7266 78.507 21.7266 78.3794 21.7266C78.2518 21.7266 78.0604 21.7266 77.8052 21.7266C77.5682 21.7266 77.2492 21.7266 76.8481 21.7266V19.3203H78.7075C79.1086 19.3203 79.5096 19.2565 79.9106 19.1289C80.3117 18.9831 80.6763 18.7552 81.0044 18.4453C81.3325 18.1354 81.5968 17.707 81.7974 17.1602C81.9979 16.5951 82.0981 15.9023 82.0981 15.082C82.0981 14.7539 82.0526 14.3802 81.9614 13.9609C81.8703 13.5234 81.6789 13.1133 81.3872 12.7305C81.1138 12.3294 80.7218 12.0013 80.2114 11.7461C79.701 11.4727 79.0265 11.3359 78.188 11.3359H76.8481V8.84766H78.2427C79.0994 8.84766 79.9471 8.98438 80.7856 9.25781C81.6242 9.53125 82.3716 9.94141 83.0278 10.4883C83.7023 11.0352 84.2401 11.7005 84.6411 12.4844C85.0604 13.25 85.27 14.1159 85.27 15.082C85.27 16.5404 84.9328 17.7799 84.2583 18.8008C83.5838 19.8216 82.6724 20.5781 81.5239 21.0703L86.1177 29ZM103.563 8.84766V11.5L93.9653 25.9102L93.4185 26.3477H103.563V29H90.1646V26.3477L99.7622 11.9375L100.336 11.5H90.1646V8.84766H103.563ZM92.6255 3.02344H95.6333L96.2622 4.17188V6.90625H95.5786L92.6255 3.02344ZM98.0122 3.02344H101.047L98.0669 6.90625H97.3833V4.14453L98.0122 3.02344ZM122.403 8.84766V11.0898H116.387V29H113.079V11.0898H107.063V8.84766H122.403ZM126.395 8.84766H129.731V29H126.395V8.84766ZM138.153 19.9219H130.852V17.6797H138.153V19.9219ZM130.852 26.5117H139V29H130.852V26.5117ZM139 8.84766V11.3359H130.852V8.84766H139ZM150.95 8.84766H154.231V29H150.95V8.84766ZM156.747 8.84766C157.603 8.84766 158.451 8.98438 159.29 9.25781C160.128 9.53125 160.875 9.94141 161.532 10.4883C162.206 11.0352 162.744 11.7005 163.145 12.4844C163.564 13.25 163.774 14.1159 163.774 15.082C163.774 16.1029 163.601 17.0326 163.254 17.8711C162.908 18.6914 162.425 19.3841 161.805 19.9492C161.185 20.5143 160.438 20.9518 159.563 21.2617C158.688 21.5716 157.722 21.7266 156.665 21.7266H155.352V19.3203H157.239C157.64 19.3203 158.032 19.2565 158.415 19.1289C158.816 18.9831 159.18 18.7552 159.508 18.4453C159.836 18.1354 160.101 17.707 160.301 17.1602C160.502 16.5951 160.602 15.9023 160.602 15.082C160.602 14.7539 160.556 14.3802 160.465 13.9609C160.374 13.5234 160.183 13.1133 159.891 12.7305C159.618 12.3294 159.226 12.0013 158.715 11.7461C158.205 11.4727 157.53 11.3359 156.692 11.3359H155.352V8.84766H156.747ZM184.036 29H180.645L175.422 13.9062L170.145 29H166.727L173.782 8.875H177.036L184.036 29ZM177.227 22.6016L178.02 24.8164H172.797L173.563 22.6016H177.227ZM191.637 8.84766V26.5117H200.907V29H188.301V8.84766H191.637ZM215.618 12.7305C215.198 12.2565 214.752 11.901 214.278 11.6641C213.804 11.4271 213.293 11.2904 212.747 11.2539V8.54688C214.788 8.63802 216.502 9.35807 217.887 10.707L215.618 12.7305ZM212.747 26.4297C213.293 26.375 213.804 26.2292 214.278 25.9922C214.77 25.7552 215.217 25.4089 215.618 24.9531L217.887 26.9492C217.194 27.6237 216.42 28.1432 215.563 28.5078C214.706 28.8724 213.767 29.082 212.747 29.1367V26.4297ZM203.887 18.8281C203.887 17.2057 204.079 15.7747 204.461 14.5352C204.862 13.2956 205.409 12.2474 206.102 11.3906C206.795 10.5339 207.606 9.86849 208.536 9.39453C209.484 8.92057 210.514 8.63802 211.625 8.54688V11.2812C211.024 11.3724 210.459 11.582 209.93 11.9102C209.402 12.2201 208.937 12.6758 208.536 13.2773C208.135 13.8789 207.816 14.6445 207.579 15.5742C207.36 16.4857 207.241 17.5703 207.223 18.8281C207.241 20.1042 207.36 21.1979 207.579 22.1094C207.816 23.0208 208.135 23.7865 208.536 24.4062C208.937 25.026 209.402 25.5 209.93 25.8281C210.477 26.1562 211.042 26.3568 211.625 26.4297V29.1094C210.514 29.0365 209.484 28.763 208.536 28.2891C207.606 27.8151 206.795 27.1497 206.102 26.293C205.409 25.4362 204.862 24.388 204.461 23.1484C204.079 21.8906 203.887 20.4505 203.887 18.8281ZM222.672 8.84766H226.008V29H222.672V8.84766ZM234.43 19.9219H227.129V17.6797H234.43V19.9219ZM227.129 26.5117H235.278V29H227.129V26.5117ZM235.278 8.84766V11.3359H227.129V8.84766H235.278Z" fill="#353434"/>
<path d="M52.7357 50.1095V53.3795L53.1407 54.3695L54.4007 54.5345L56.0357 53.5595V51.9695L56.0207 50.0945L55.9457 48.5345L54.8807 48.5795L54.8057 48.0545L56.8757 47.6495L57.6257 47.8145L57.5207 49.8545L57.5057 51.0545L57.5357 51.9695V54.6695L58.5857 54.9695L58.5107 55.4945H56.4557L56.1107 54.2345L54.4157 55.4795L52.8857 55.5845L51.5057 54.6395L51.2807 53.4395L51.2957 50.2295L51.1457 48.5195L50.0807 48.5645L50.0057 48.0395L52.0757 47.6345L52.8257 47.7995L52.7357 50.1095ZM54.8507 43.9295L55.9007 44.1845L56.0507 44.5295L55.4207 45.2195L54.1907 46.7945L53.6507 46.5395L54.8507 43.9295ZM62.7534 55.4345L61.7334 55.5845L60.6684 55.2245L60.1884 54.0245L60.2634 51.2345L60.1884 48.7145L59.1534 48.5645L59.0634 48.0395L60.2484 47.7245L60.7884 46.2095H61.5534L61.5084 47.8895L63.3234 47.9495L63.2334 48.6095L61.6584 48.7145L61.5984 49.4045L61.6584 53.9495L61.9584 54.8495L63.3684 54.4745L63.5934 54.9245L62.7534 55.4345ZM64.272 52.4345V50.4695L65.157 48.6845L66.852 47.5595L68.907 47.4845L70.782 48.6095L71.757 50.4095L71.577 53.1545L70.467 54.9245L68.142 55.5845L66.192 55.2095L64.767 53.9195L64.272 52.4345ZM65.922 49.9595L65.847 51.6395L66.027 53.3795L66.672 54.5045L68.262 54.8945L69.732 54.2495L70.167 51.9095L70.017 49.9595L69.462 48.7145L68.367 48.1595L66.867 48.3245L65.922 49.9595ZM76.8296 55.4345C76.1196 55.4345 75.4846 55.2895 74.9246 54.9995C74.3746 54.7095 73.9396 54.2595 73.6196 53.6495C73.3096 53.0395 73.1546 52.2595 73.1546 51.3095C73.1546 50.3195 73.3196 49.5145 73.6496 48.8945C73.9796 48.2745 74.4246 47.8195 74.9846 47.5295C75.5546 47.2395 76.1996 47.0945 76.9196 47.0945C77.3296 47.0945 77.7246 47.1395 78.1046 47.2295C78.4846 47.3095 78.7946 47.4095 79.0346 47.5295L78.6296 48.6245C78.3896 48.5345 78.1096 48.4495 77.7896 48.3695C77.4696 48.2895 77.1696 48.2495 76.8896 48.2495C76.3496 48.2495 75.9046 48.3645 75.5546 48.5945C75.2046 48.8245 74.9446 49.1645 74.7746 49.6145C74.6046 50.0645 74.5196 50.6245 74.5196 51.2945C74.5196 51.9345 74.6046 52.4795 74.7746 52.9295C74.9446 53.3795 75.1996 53.7195 75.5396 53.9495C75.8796 54.1795 76.3046 54.2945 76.8146 54.2945C77.2546 54.2945 77.6396 54.2495 77.9696 54.1595C78.3096 54.0695 78.6196 53.9595 78.8996 53.8295V54.9995C78.6296 55.1395 78.3296 55.2445 77.9996 55.3145C77.6796 55.3945 77.2896 55.4345 76.8296 55.4345ZM75.8996 46.1945C75.7696 45.9645 75.5946 45.7195 75.3746 45.4595C75.1546 45.1895 74.9246 44.9245 74.6846 44.6645C74.4446 44.4045 74.2346 44.1795 74.0546 43.9895V43.7945H74.9546C75.2146 43.9645 75.4846 44.1695 75.7646 44.4095C76.0446 44.6495 76.3096 44.9045 76.5596 45.1745C76.8296 44.9045 77.1046 44.6495 77.3846 44.4095C77.6646 44.1695 77.9346 43.9645 78.1946 43.7945H79.1246V43.9895C78.9346 44.1795 78.7146 44.4045 78.4646 44.6645C78.2246 44.9245 77.9896 45.1895 77.7596 45.4595C77.5396 45.7195 77.3696 45.9645 77.2496 46.1945H75.8996ZM80.8266 44.6645L81.5166 44.3345L82.2366 44.5745L82.5666 45.3845L82.1466 46.0445L81.4416 46.3295L80.7816 45.9245L80.4666 45.2495L80.8266 44.6645ZM82.5216 49.8395L82.4316 51.3395L82.4766 52.7945L82.5366 54.5345L83.6316 54.8345L83.5566 55.3595L81.7866 55.2845L79.9566 55.3595L79.9866 54.8345L80.9766 54.5345L81.0516 52.9595L81.0216 50.0795L80.9466 48.5195L79.8816 48.5645L79.8066 48.0395L81.8766 47.6345L82.6266 47.7995L82.5216 49.8395ZM90.3972 53.0645C90.3972 53.5845 90.2672 54.0195 90.0072 54.3695C89.7472 54.7195 89.3772 54.9845 88.8972 55.1645C88.4172 55.3445 87.8472 55.4345 87.1872 55.4345C86.6272 55.4345 86.1422 55.3895 85.7322 55.2995C85.3322 55.2095 84.9772 55.0845 84.6672 54.9245V53.7245C84.9872 53.8845 85.3722 54.0345 85.8222 54.1745C86.2822 54.3045 86.7472 54.3695 87.2172 54.3695C87.8872 54.3695 88.3722 54.2645 88.6722 54.0545C88.9722 53.8345 89.1222 53.5445 89.1222 53.1845C89.1222 52.9845 89.0672 52.8045 88.9572 52.6445C88.8472 52.4845 88.6472 52.3245 88.3572 52.1645C88.0772 52.0045 87.6722 51.8245 87.1422 51.6245C86.6222 51.4245 86.1772 51.2245 85.8072 51.0245C85.4372 50.8245 85.1522 50.5845 84.9522 50.3045C84.7522 50.0245 84.6522 49.6645 84.6522 49.2245C84.6522 48.5445 84.9272 48.0195 85.4772 47.6495C86.0372 47.2795 86.7672 47.0945 87.6672 47.0945C88.1572 47.0945 88.6122 47.1445 89.0322 47.2445C89.4622 47.3345 89.8622 47.4645 90.2322 47.6345L89.7822 48.6845C89.5622 48.5845 89.3272 48.4995 89.0772 48.4295C88.8372 48.3495 88.5922 48.2895 88.3422 48.2495C88.0922 48.1995 87.8372 48.1745 87.5772 48.1745C87.0372 48.1745 86.6222 48.2645 86.3322 48.4445C86.0522 48.6145 85.9122 48.8495 85.9122 49.1495C85.9122 49.3695 85.9772 49.5595 86.1072 49.7195C86.2372 49.8695 86.4522 50.0195 86.7522 50.1695C87.0622 50.3095 87.4722 50.4795 87.9822 50.6795C88.4922 50.8695 88.9272 51.0645 89.2872 51.2645C89.6472 51.4645 89.9222 51.7095 90.1122 51.9995C90.3022 52.2795 90.3972 52.6345 90.3972 53.0645ZM86.7972 46.1945C86.6672 45.9645 86.4922 45.7195 86.2722 45.4595C86.0522 45.1895 85.8222 44.9245 85.5822 44.6645C85.3422 44.4045 85.1322 44.1795 84.9522 43.9895V43.7945H85.8522C86.1122 43.9645 86.3822 44.1695 86.6622 44.4095C86.9422 44.6495 87.2072 44.9045 87.4572 45.1745C87.7272 44.9045 88.0022 44.6495 88.2822 44.4095C88.5622 44.1695 88.8322 43.9645 89.0922 43.7945H90.0222V43.9895C89.8322 44.1795 89.6122 44.4045 89.3622 44.6645C89.1222 44.9245 88.8872 45.1895 88.6572 45.4595C88.4372 45.7195 88.2672 45.9645 88.1472 46.1945H86.7972ZM94.9799 55.4345L93.9599 55.5845L92.8949 55.2245L92.4149 54.0245L92.4899 51.2345L92.4149 48.7145L91.3799 48.5645L91.2899 48.0395L92.4749 47.7245L93.0149 46.2095H93.7799L93.7349 47.8895L95.5499 47.9495L95.4599 48.6095L93.8849 48.7145L93.8249 49.4045L93.8849 53.9495L94.1849 54.8495L95.5949 54.4745L95.8199 54.9245L94.9799 55.4345ZM100.294 47.0945C100.984 47.0945 101.574 47.2445 102.064 47.5445C102.564 47.8445 102.944 48.2695 103.204 48.8195C103.474 49.3595 103.609 49.9945 103.609 50.7245V51.5195H98.1036C98.1236 52.4295 98.3536 53.1245 98.7936 53.6045C99.2436 54.0745 99.8686 54.3095 100.669 54.3095C101.179 54.3095 101.629 54.2645 102.019 54.1745C102.419 54.0745 102.829 53.9345 103.249 53.7545V54.9095C102.839 55.0895 102.434 55.2195 102.034 55.2995C101.634 55.3895 101.159 55.4345 100.609 55.4345C99.8486 55.4345 99.1736 55.2795 98.5836 54.9695C98.0036 54.6595 97.5486 54.1995 97.2186 53.5895C96.8986 52.9695 96.7386 52.2145 96.7386 51.3245C96.7386 50.4445 96.8836 49.6895 97.1736 49.0595C97.4736 48.4295 97.8886 47.9445 98.4186 47.6045C98.9586 47.2645 99.5836 47.0945 100.294 47.0945ZM100.279 48.1745C99.6486 48.1745 99.1486 48.3795 98.7786 48.7895C98.4186 49.1895 98.2036 49.7495 98.1336 50.4695H102.229C102.229 50.0095 102.159 49.6095 102.019 49.2695C101.879 48.9295 101.664 48.6645 101.374 48.4745C101.094 48.2745 100.729 48.1745 100.279 48.1745ZM99.4986 46.1945C99.3686 45.9645 99.1936 45.7195 98.9736 45.4595C98.7536 45.1895 98.5236 44.9245 98.2836 44.6645C98.0436 44.4045 97.8336 44.1795 97.6536 43.9895V43.7945H98.5536C98.8136 43.9645 99.0836 44.1695 99.3636 44.4095C99.6436 44.6495 99.9086 44.9045 100.159 45.1745C100.429 44.9045 100.704 44.6495 100.984 44.4095C101.264 44.1695 101.534 43.9645 101.794 43.7945H102.724V43.9895C102.534 44.1795 102.314 44.4045 102.064 44.6645C101.824 44.9245 101.589 45.1895 101.359 45.4595C101.139 45.7195 100.969 45.9645 100.849 46.1945H99.4986ZM110.715 48.4595H110.82L112.425 47.4845L114.09 47.6645L115.185 48.4445L116.055 50.2295L116.07 52.7795L115.5 53.9645L113.775 55.3595L112.11 55.5845L110.685 55.2095L110.73 56.5445L110.85 58.2845L111.945 58.5845L111.87 59.1095L110.04 59.0345L108.21 59.1095L108.24 58.5845L109.23 58.2845L109.305 56.7095L109.365 53.4245L109.275 50.0795L109.2 48.4745L108.135 48.5195L108.06 47.9945L110.13 47.5895L110.7 47.7545L110.715 48.4595ZM110.7 54.3845L112.32 54.9095L113.265 54.6395L114.42 53.4095L114.63 51.6845L114.18 49.1645L112.845 48.3695L110.745 49.0895L110.775 49.8395L110.7 54.3845ZM119.774 49.0145H119.834L120.764 47.9495L121.784 47.4995L122.909 47.7845L122.654 50.0195L122.129 49.9145L121.754 48.3695L120.779 48.6845L119.714 49.9295L119.639 51.3395L119.684 52.7945L119.744 54.5345L121.244 54.8345L121.169 55.3595L118.994 55.2845L117.164 55.3595L117.194 54.8345L118.184 54.5345L118.259 52.9595L118.229 50.0795L118.154 48.5195L117.089 48.5645L117.014 48.0395L119.084 47.6345L119.834 47.7995L119.774 49.0145ZM123.715 52.4345V50.4695L124.6 48.6845L126.295 47.5595L128.35 47.4845L130.225 48.6095L131.2 50.4095L131.02 53.1545L129.91 54.9245L127.585 55.5845L125.635 55.2095L124.21 53.9195L123.715 52.4345ZM125.365 49.9595L125.29 51.6395L125.47 53.3795L126.115 54.5045L127.705 54.8945L129.175 54.2495L129.61 51.9095L129.46 49.9595L128.905 48.7145L127.81 48.1595L126.31 48.3245L125.365 49.9595ZM138.363 49.0145H138.423L139.353 47.9495L140.373 47.4995L141.498 47.7845L141.243 50.0195L140.718 49.9145L140.343 48.3695L139.368 48.6845L138.303 49.9295L138.228 51.3395L138.273 52.7945L138.333 54.5345L139.833 54.8345L139.758 55.3595L137.583 55.2845L135.753 55.3595L135.783 54.8345L136.773 54.5345L136.848 52.9595L136.818 50.0795L136.743 48.5195L135.678 48.5645L135.603 48.0395L137.673 47.6345L138.423 47.7995L138.363 49.0145ZM142.304 52.4345V50.4695L143.189 48.6845L144.884 47.5595L146.939 47.4845L148.814 48.6095L149.789 50.4095L149.609 53.1545L148.499 54.9245L146.174 55.5845L144.224 55.2095L142.799 53.9195L142.304 52.4345ZM143.954 49.9595L143.879 51.6395L144.059 53.3795L144.704 54.5045L146.294 54.8945L147.764 54.2495L148.199 51.9095L148.049 49.9595L147.494 48.7145L146.399 48.1595L144.899 48.3245L143.954 49.9595ZM156.407 54.6095H156.332L154.667 55.5845L153.002 55.4045L151.907 54.6245L151.037 52.8395L151.022 50.2895L151.592 49.1045L153.317 47.7095L154.982 47.4845L156.437 47.8595L156.347 44.9945L155.102 44.8745L155.177 44.3495L157.247 43.9445L157.847 44.1095L157.742 49.9145L157.847 54.6695L158.882 54.8195L158.777 55.3145L156.692 55.4945L156.407 54.6095ZM154.202 54.8195L156.407 53.9795L156.437 48.6845L154.772 48.1595L153.827 48.4295L152.672 49.6595L152.462 51.3845L152.912 53.9045L154.202 54.8195ZM160.441 44.6645L161.131 44.3345L161.851 44.5745L162.181 45.3845L161.761 46.0445L161.056 46.3295L160.396 45.9245L160.081 45.2495L160.441 44.6645ZM162.136 49.8395L162.046 51.3395L162.091 52.7945L162.151 54.5345L163.246 54.8345L163.171 55.3595L161.401 55.2845L159.571 55.3595L159.601 54.8345L160.591 54.5345L160.666 52.9595L160.636 50.0795L160.561 48.5195L159.496 48.5645L159.421 48.0395L161.491 47.6345L162.241 47.7995L162.136 49.8395ZM168.001 55.4345C167.291 55.4345 166.656 55.2895 166.096 54.9995C165.546 54.7095 165.111 54.2595 164.791 53.6495C164.481 53.0395 164.326 52.2595 164.326 51.3095C164.326 50.3195 164.491 49.5145 164.821 48.8945C165.151 48.2745 165.596 47.8195 166.156 47.5295C166.726 47.2395 167.371 47.0945 168.091 47.0945C168.501 47.0945 168.896 47.1395 169.276 47.2295C169.656 47.3095 169.966 47.4095 170.206 47.5295L169.801 48.6245C169.561 48.5345 169.281 48.4495 168.961 48.3695C168.641 48.2895 168.341 48.2495 168.061 48.2495C167.521 48.2495 167.076 48.3645 166.726 48.5945C166.376 48.8245 166.116 49.1645 165.946 49.6145C165.776 50.0645 165.691 50.6245 165.691 51.2945C165.691 51.9345 165.776 52.4795 165.946 52.9295C166.116 53.3795 166.371 53.7195 166.711 53.9495C167.051 54.1795 167.476 54.2945 167.986 54.2945C168.426 54.2945 168.811 54.2495 169.141 54.1595C169.481 54.0695 169.791 53.9595 170.071 53.8295V54.9995C169.801 55.1395 169.501 55.2445 169.171 55.3145C168.851 55.3945 168.461 55.4345 168.001 55.4345ZM167.071 46.1945C166.941 45.9645 166.766 45.7195 166.546 45.4595C166.326 45.1895 166.096 44.9245 165.856 44.6645C165.616 44.4045 165.406 44.1795 165.226 43.9895V43.7945H166.126C166.386 43.9645 166.656 44.1695 166.936 44.4095C167.216 44.6495 167.481 44.9045 167.731 45.1745C168.001 44.9045 168.276 44.6495 168.556 44.4095C168.836 44.1695 169.106 43.9645 169.366 43.7945H170.296V43.9895C170.106 44.1795 169.886 44.4045 169.636 44.6645C169.396 44.9245 169.161 45.1895 168.931 45.4595C168.711 45.7195 168.541 45.9645 168.421 46.1945H167.071ZM172.793 51.2495L172.778 51.3845L173.183 53.4995L174.368 54.6695L175.748 54.8195L177.158 54.0695L177.428 54.4595L176.243 55.4045L174.833 55.5845L173.363 55.2395L172.088 54.1745L171.323 51.9245L171.578 49.9145L172.358 48.5045L173.933 47.6345L175.253 47.4695L176.303 47.7995L177.113 48.5345L177.578 49.8695L177.593 51.1145L177.383 51.2795L175.388 51.4145L172.793 51.2495ZM173.543 48.8195L172.958 49.9595L172.868 50.6345L175.148 50.6645L176.183 50.4395L176.093 49.0445L175.643 48.2795L174.683 48.1445L173.543 48.8195ZM187.74 54.6095H187.665L186 55.5845L184.335 55.4045L183.24 54.6245L182.37 52.8395L182.355 50.2895L182.925 49.1045L184.65 47.7095L186.315 47.4845L187.77 47.8595L187.68 44.9945L186.435 44.8745L186.51 44.3495L188.58 43.9445L189.18 44.1095L189.075 49.9145L189.18 54.6695L190.215 54.8195L190.11 55.3145L188.025 55.4945L187.74 54.6095ZM185.535 54.8195L187.74 53.9795L187.77 48.6845L186.105 48.1595L185.16 48.4295L184.005 49.6595L183.795 51.3845L184.245 53.9045L185.535 54.8195ZM194.864 47.0945C195.554 47.0945 196.144 47.2445 196.634 47.5445C197.134 47.8445 197.514 48.2695 197.774 48.8195C198.044 49.3595 198.179 49.9945 198.179 50.7245V51.5195H192.674C192.694 52.4295 192.924 53.1245 193.364 53.6045C193.814 54.0745 194.439 54.3095 195.239 54.3095C195.749 54.3095 196.199 54.2645 196.589 54.1745C196.989 54.0745 197.399 53.9345 197.819 53.7545V54.9095C197.409 55.0895 197.004 55.2195 196.604 55.2995C196.204 55.3895 195.729 55.4345 195.179 55.4345C194.419 55.4345 193.744 55.2795 193.154 54.9695C192.574 54.6595 192.119 54.1995 191.789 53.5895C191.469 52.9695 191.309 52.2145 191.309 51.3245C191.309 50.4445 191.454 49.6895 191.744 49.0595C192.044 48.4295 192.459 47.9445 192.989 47.6045C193.529 47.2645 194.154 47.0945 194.864 47.0945ZM194.849 48.1745C194.219 48.1745 193.719 48.3795 193.349 48.7895C192.989 49.1895 192.774 49.7495 192.704 50.4695H196.799C196.799 50.0095 196.729 49.6095 196.589 49.2695C196.449 48.9295 196.234 48.6645 195.944 48.4745C195.664 48.2745 195.299 48.1745 194.849 48.1745ZM194.069 46.1945C193.939 45.9645 193.764 45.7195 193.544 45.4595C193.324 45.1895 193.094 44.9245 192.854 44.6645C192.614 44.4045 192.404 44.1795 192.224 43.9895V43.7945H193.124C193.384 43.9645 193.654 44.1695 193.934 44.4095C194.214 44.6495 194.479 44.9045 194.729 45.1745C194.999 44.9045 195.274 44.6495 195.554 44.4095C195.834 44.1695 196.104 43.9645 196.364 43.7945H197.294V43.9895C197.104 44.1795 196.884 44.4045 196.634 44.6645C196.394 44.9245 196.159 45.1895 195.929 45.4595C195.709 45.7195 195.539 45.9645 195.419 46.1945H194.069ZM202.866 55.4345L201.846 55.5845L200.781 55.2245L200.301 54.0245L200.376 51.2345L200.301 48.7145L199.266 48.5645L199.176 48.0395L200.361 47.7245L200.901 46.2095H201.666L201.621 47.8895L203.436 47.9495L203.346 48.6095L201.771 48.7145L201.711 49.4045L201.771 53.9495L202.071 54.8495L203.481 54.4745L203.706 54.9245L202.866 55.4345ZM206.784 49.8395L206.694 51.3395L206.739 52.7945L206.799 54.5345L207.894 54.8345L207.819 55.3595L206.049 55.2845L204.219 55.3595L204.249 54.8345L205.239 54.5345L205.314 52.9595L205.284 50.0795L205.209 48.5195L204.144 48.5645L204.069 48.0395L206.139 47.6345L206.889 47.7995L206.784 49.8395ZM206.289 43.9295L207.339 44.1845L207.489 44.5295L206.859 45.2195L205.629 46.7945L205.089 46.5395L206.289 43.9295ZM213.314 54.6995L214.559 54.8945L215.954 54.6995L216.284 53.6795L215.879 52.8995L213.089 51.2045L212.489 50.2595L212.459 48.6695L213.524 47.7695L215.099 47.4845L217.304 47.9345L216.989 50.1395L216.359 49.9295L216.074 48.3695L215.039 48.1745L213.914 48.4295L213.629 49.2545L213.989 50.1395L216.869 51.7895L217.574 52.6745L217.634 54.0845L216.614 55.2845L214.814 55.5845L213.569 55.5245L212.174 54.9845L212.549 52.8245L213.194 53.0345L213.314 54.6995ZM224.519 48.4595H224.624L226.229 47.4845L227.894 47.6645L228.989 48.4445L229.859 50.2295L229.874 52.7795L229.304 53.9645L227.579 55.3595L225.914 55.5845L224.489 55.2095L224.534 56.5445L224.654 58.2845L225.749 58.5845L225.674 59.1095L223.844 59.0345L222.014 59.1095L222.044 58.5845L223.034 58.2845L223.109 56.7095L223.169 53.4245L223.079 50.0795L223.004 48.4745L221.939 48.5195L221.864 47.9945L223.934 47.5895L224.504 47.7545L224.519 48.4595ZM224.504 54.3845L226.124 54.9095L227.069 54.6395L228.224 53.4095L228.434 51.6845L227.984 49.1645L226.649 48.3695L224.549 49.0895L224.579 49.8395L224.504 54.3845ZM231.132 52.4345V50.4695L232.017 48.6845L233.712 47.5595L235.767 47.4845L237.642 48.6095L238.617 50.4095L238.437 53.1545L237.327 54.9245L235.002 55.5845L233.052 55.2095L231.627 53.9195L231.132 52.4345ZM232.782 49.9595L232.707 51.6395L232.887 53.3795L233.532 54.5045L235.122 54.8945L236.592 54.2495L237.027 51.9095L236.877 49.9595L236.322 48.7145L235.227 48.1595L233.727 48.3245L232.782 49.9595ZM242.22 49.0145H242.28L243.21 47.9495L244.23 47.4995L245.355 47.7845L245.1 50.0195L244.575 49.9145L244.2 48.3695L243.225 48.6845L242.16 49.9295L242.085 51.3395L242.13 52.7945L242.19 54.5345L243.69 54.8345L243.615 55.3595L241.44 55.2845L239.61 55.3595L239.64 54.8345L240.63 54.5345L240.705 52.9595L240.675 50.0795L240.6 48.5195L239.535 48.5645L239.46 48.0395L241.53 47.6345L242.28 47.7995L242.22 49.0145ZM248.395 50.1095V53.3795L248.8 54.3695L250.06 54.5345L251.695 53.5595V51.9695L251.68 50.0945L251.605 48.5345L250.54 48.5795L250.465 48.0545L252.535 47.6495L253.285 47.8145L253.18 49.8545L253.165 51.0545L253.195 51.9695V54.6695L254.245 54.9695L254.17 55.4945H252.115L251.77 54.2345L250.075 55.4795L248.545 55.5845L247.165 54.6395L246.94 53.4395L246.955 50.2295L246.805 48.5195L245.74 48.5645L245.665 48.0395L247.735 47.6345L248.485 47.7995L248.395 50.1095ZM260.168 48.3395L258.278 48.1895L256.928 49.6295L256.538 51.1895L256.733 52.7795L257.693 54.5195L259.538 54.8195L260.948 54.0695L261.218 54.4595L260.033 55.4045L258.623 55.5845L256.478 54.9695L255.143 52.7945L255.128 50.2895L256.148 48.5045L257.723 47.6795L259.088 47.4845L261.383 47.7845L260.933 50.1395L260.438 50.2145L260.168 48.3395ZM264.583 46.1495L264.538 48.6095L266.203 47.5895L267.733 47.4845L269.113 48.4295L269.338 49.6295L269.308 52.7945L269.428 54.5495L270.493 54.8345L270.418 55.3595L268.648 55.2845L266.818 55.3595L266.848 54.8345L267.838 54.5345L267.943 52.9595L267.883 49.6895L267.478 48.6995L266.203 48.4745L264.523 49.3295L264.493 51.3395L264.523 52.7945L264.568 54.5345L265.663 54.8345L265.588 55.3595L263.818 55.2845L261.988 55.3595L262.018 54.8345L263.008 54.5345L263.143 52.9595L263.083 46.3895L262.978 44.8295L261.913 44.8745L261.838 44.3495L263.908 43.9445L264.658 44.1095L264.583 46.1495ZM271.313 52.4345V50.4695L272.198 48.6845L273.893 47.5595L275.948 47.4845L277.823 48.6095L278.798 50.4095L278.618 53.1545L277.508 54.9245L275.183 55.5845L273.233 55.2095L271.808 53.9195L271.313 52.4345ZM272.963 49.9595L272.888 51.6395L273.068 53.3795L273.713 54.5045L275.303 54.8945L276.773 54.2495L277.208 51.9095L277.058 49.9595L276.503 48.7145L275.408 48.1595L273.908 48.3245L272.963 49.9595ZM282.116 50.1095V53.3795L282.521 54.3695L283.781 54.5345L285.416 53.5595V51.9695L285.401 50.0945L285.326 48.5345L284.261 48.5795L284.186 48.0545L286.256 47.6495L287.006 47.8145L286.901 49.8545L286.886 51.0545L286.916 51.9695V54.6695L287.966 54.9695L287.891 55.4945H285.836L285.491 54.2345L283.796 55.4795L282.266 55.5845L280.886 54.6395L280.661 53.4395L280.676 50.2295L280.526 48.5195L279.461 48.5645L279.386 48.0395L281.456 47.6345L282.206 47.7995L282.116 50.1095ZM294.043 54.4445L295.168 54.7295L296.683 53.8595L296.623 51.8345H295.318L294.163 52.2995L293.638 53.2295L294.043 54.4445ZM297.913 52.5545L298.018 54.6695L299.053 54.8195L298.948 55.3145L296.863 55.4945L296.668 54.6095H296.593L295.108 55.4945H293.548L292.498 54.7295L292.183 53.2595L292.843 52.0895L294.643 51.3095L296.623 51.2345L296.563 49.3595L296.278 48.4295L295.063 48.0845L293.608 48.4295L293.563 50.0195L292.978 50.1395L292.588 48.0845L294.313 47.5745L296.248 47.4845L297.418 48.0545L297.898 49.3445L297.913 52.5545ZM301.964 50.1095V53.3795L302.369 54.3695L303.629 54.5345L305.264 53.5595V51.9695L305.249 50.0945L305.174 48.5345L304.109 48.5795L304.034 48.0545L306.104 47.6495L306.854 47.8145L306.749 49.8545L306.734 51.0545L306.764 51.9695V54.6695L307.814 54.9695L307.739 55.4945H305.684L305.339 54.2345L303.644 55.4795L302.114 55.5845L300.734 54.6395L300.509 53.4395L300.524 50.2295L300.374 48.5195L299.309 48.5645L299.234 48.0395L301.304 47.6345L302.054 47.7995L301.964 50.1095ZM311.982 55.4345L310.962 55.5845L309.897 55.2245L309.417 54.0245L309.492 51.2345L309.417 48.7145L308.382 48.5645L308.292 48.0395L309.477 47.7245L310.017 46.2095H310.782L310.737 47.8895L312.552 47.9495L312.462 48.6095L310.887 48.7145L310.827 49.4045L310.887 53.9495L311.187 54.8495L312.597 54.4745L312.822 54.9245L311.982 55.4345ZM314.206 44.6645L314.896 44.3345L315.616 44.5745L315.946 45.3845L315.526 46.0445L314.821 46.3295L314.161 45.9245L313.846 45.2495L314.206 44.6645ZM315.901 49.8395L315.811 51.3395L315.856 52.7945L315.916 54.5345L317.011 54.8345L316.936 55.3595L315.166 55.2845L313.336 55.3595L313.366 54.8345L314.356 54.5345L314.431 52.9595L314.401 50.0795L314.326 48.5195L313.261 48.5645L313.186 48.0395L315.256 47.6345L316.006 47.7995L315.901 49.8395ZM318.871 54.6995L320.116 54.8945L321.511 54.6995L321.841 53.6795L321.436 52.8995L318.646 51.2045L318.046 50.2595L318.016 48.6695L319.081 47.7695L320.656 47.4845L322.861 47.9345L322.546 50.1395L321.916 49.9295L321.631 48.3695L320.596 48.1745L319.471 48.4295L319.186 49.2545L319.546 50.1395L322.426 51.7895L323.131 52.6745L323.191 54.0845L322.171 55.2845L320.371 55.5845L319.126 55.5245L317.731 54.9845L318.106 52.8245L318.751 53.0345L318.871 54.6995ZM327.656 55.4345L326.636 55.5845L325.571 55.2245L325.091 54.0245L325.166 51.2345L325.091 48.7145L324.056 48.5645L323.966 48.0395L325.151 47.7245L325.691 46.2095H326.456L326.411 47.8895L328.226 47.9495L328.136 48.6095L326.561 48.7145L326.501 49.4045L326.561 53.9495L326.861 54.8495L328.271 54.4745L328.496 54.9245L327.656 55.4345ZM329.879 44.6645L330.569 44.3345L331.289 44.5745L331.619 45.3845L331.199 46.0445L330.494 46.3295L329.834 45.9245L329.519 45.2495L329.879 44.6645ZM331.574 49.8395L331.484 51.3395L331.529 52.7945L331.589 54.5345L332.684 54.8345L332.609 55.3595L330.839 55.2845L329.009 55.3595L329.039 54.8345L330.029 54.5345L330.104 52.9595L330.074 50.0795L329.999 48.5195L328.934 48.5645L328.859 48.0395L330.929 47.6345L331.679 47.7995L331.574 49.8395ZM338.61 48.3395L336.72 48.1895L335.37 49.6295L334.98 51.1895L335.175 52.7795L336.135 54.5195L337.98 54.8195L339.39 54.0695L339.66 54.4595L338.475 55.4045L337.065 55.5845L334.92 54.9695L333.585 52.7945L333.57 50.2895L334.59 48.5045L336.165 47.6795L337.53 47.4845L339.825 47.7845L339.375 50.1395L338.88 50.2145L338.61 48.3395ZM344.991 49.4045L345.681 48.3995L344.676 48.2345L344.751 47.7095L346.326 47.7845L347.706 47.7095L347.676 48.2345L346.626 48.5645L344.481 50.8745L345.726 52.6295L347.271 54.5345L348.156 54.8345L348.081 55.3595L346.521 55.2845L345.096 55.3595L345.126 54.8345L345.846 54.7895L345.441 54.0395L343.701 51.7295H342.966L342.996 52.7945L343.026 54.5345L344.061 54.8345L343.971 55.3595L342.306 55.2845L340.386 55.3595L340.446 54.8345L341.496 54.5795L341.541 52.9595L341.601 49.6745L341.541 46.3295L341.466 44.8295L340.401 44.8745L340.326 44.3495L342.396 43.9445L343.146 44.1095L343.041 46.0895L342.951 51.1445H343.416L344.991 49.4045ZM349.747 51.2495L349.732 51.3845L350.137 53.4995L351.322 54.6695L352.702 54.8195L354.112 54.0695L354.382 54.4595L353.197 55.4045L351.787 55.5845L350.317 55.2395L349.042 54.1745L348.277 51.9245L348.532 49.9145L349.312 48.5045L350.887 47.6345L352.207 47.4695L353.257 47.7995L354.067 48.5345L354.532 49.8695L354.547 51.1145L354.337 51.2795L352.342 51.4145L349.747 51.2495ZM350.497 48.8195L349.912 49.9595L349.822 50.6345L352.102 50.6645L353.137 50.4395L353.047 49.0445L352.597 48.2795L351.637 48.1445L350.497 48.8195ZM352.747 43.9445L353.797 44.1995L353.947 44.5445L353.317 45.2345L352.087 46.8095L351.547 46.5545L352.747 43.9445ZM357.908 46.1495L357.863 48.6095L359.528 47.5895L361.058 47.4845L362.438 48.4295L362.663 49.6295L362.633 52.7945L362.753 54.5495L363.818 54.8345L363.743 55.3595L361.973 55.2845L360.143 55.3595L360.173 54.8345L361.163 54.5345L361.268 52.9595L361.208 49.6895L360.803 48.6995L359.528 48.4745L357.848 49.3295L357.818 51.3395L357.848 52.7945L357.893 54.5345L358.988 54.8345L358.913 55.3595L357.143 55.2845L355.313 55.3595L355.343 54.8345L356.333 54.5345L356.468 52.9595L356.408 46.3895L356.303 44.8295L355.238 44.8745L355.163 44.3495L357.233 43.9445L357.983 44.1095L357.908 46.1495ZM364.638 52.4345V50.4695L365.523 48.6845L367.218 47.5595L369.273 47.4845L371.148 48.6095L372.123 50.4095L371.943 53.1545L370.833 54.9245L368.508 55.5845L366.558 55.2095L365.133 53.9195L364.638 52.4345ZM366.288 49.9595L366.213 51.6395L366.393 53.3795L367.038 54.5045L368.628 54.8945L370.098 54.2495L370.533 51.9095L370.383 49.9595L369.828 48.7145L368.733 48.1595L367.233 48.3245L366.288 49.9595ZM377.86 54.6995L379.105 54.8945L380.5 54.6995L380.83 53.6795L380.425 52.8995L377.635 51.2045L377.035 50.2595L377.005 48.6695L378.07 47.7695L379.645 47.4845L381.85 47.9345L381.535 50.1395L380.905 49.9295L380.62 48.3695L379.585 48.1745L378.46 48.4295L378.175 49.2545L378.535 50.1395L381.415 51.7895L382.12 52.6745L382.18 54.0845L381.16 55.2845L379.36 55.5845L378.115 55.5245L376.72 54.9845L377.095 52.8245L377.74 53.0345L377.86 54.6995ZM385.505 48.4595H385.61L387.215 47.4845L388.88 47.6645L389.975 48.4445L390.845 50.2295L390.86 52.7795L390.29 53.9645L388.565 55.3595L386.9 55.5845L385.475 55.2095L385.52 56.5445L385.64 58.2845L386.735 58.5845L386.66 59.1095L384.83 59.0345L383 59.1095L383.03 58.5845L384.02 58.2845L384.095 56.7095L384.155 53.4245L384.065 50.0795L383.99 48.4745L382.925 48.5195L382.85 47.9945L384.92 47.5895L385.49 47.7545L385.505 48.4595ZM385.49 54.3845L387.11 54.9095L388.055 54.6395L389.21 53.4095L389.42 51.6845L388.97 49.1645L387.635 48.3695L385.535 49.0895L385.565 49.8395L385.49 54.3845ZM393.619 51.2495L393.604 51.3845L394.009 53.4995L395.194 54.6695L396.574 54.8195L397.984 54.0695L398.254 54.4595L397.069 55.4045L395.659 55.5845L394.189 55.2395L392.914 54.1745L392.149 51.9245L392.404 49.9145L393.184 48.5045L394.759 47.6345L396.079 47.4695L397.129 47.7995L397.939 48.5345L398.404 49.8695L398.419 51.1145L398.209 51.2795L396.214 51.4145L393.619 51.2495ZM394.369 48.8195L393.784 49.9595L393.694 50.6345L395.974 50.6645L397.009 50.4395L396.919 49.0445L396.469 48.2795L395.509 48.1445L394.369 48.8195ZM403.745 49.4045L404.435 48.3995L403.43 48.2345L403.505 47.7095L405.08 47.7845L406.46 47.7095L406.43 48.2345L405.38 48.5645L403.235 50.8745L404.48 52.6295L406.025 54.5345L406.91 54.8345L406.835 55.3595L405.275 55.2845L403.85 55.3595L403.88 54.8345L404.6 54.7895L404.195 54.0395L402.455 51.7295H401.72L401.75 52.7945L401.78 54.5345L402.815 54.8345L402.725 55.3595L401.06 55.2845L399.14 55.3595L399.2 54.8345L400.25 54.5795L400.295 52.9595L400.355 49.6745L400.295 46.3295L400.22 44.8295L399.155 44.8745L399.08 44.3495L401.15 43.9445L401.9 44.1095L401.795 46.0895L401.705 51.1445H402.17L403.745 49.4045ZM410.932 55.4345L409.912 55.5845L408.847 55.2245L408.367 54.0245L408.442 51.2345L408.367 48.7145L407.332 48.5645L407.242 48.0395L408.427 47.7245L408.967 46.2095H409.732L409.687 47.8895L411.502 47.9495L411.412 48.6095L409.837 48.7145L409.777 49.4045L409.837 53.9495L410.137 54.8495L411.547 54.4745L411.772 54.9245L410.932 55.4345ZM414.896 49.0145H414.956L415.886 47.9495L416.906 47.4995L418.031 47.7845L417.776 50.0195L417.251 49.9145L416.876 48.3695L415.901 48.6845L414.836 49.9295L414.761 51.3395L414.806 52.7945L414.866 54.5345L416.366 54.8345L416.291 55.3595L414.116 55.2845L412.286 55.3595L412.316 54.8345L413.306 54.5345L413.381 52.9595L413.351 50.0795L413.276 48.5195L412.211 48.5645L412.136 48.0395L414.206 47.6345L414.956 47.7995L414.896 49.0145ZM420.532 54.4445L421.657 54.7295L423.172 53.8595L423.112 51.8345H421.807L420.652 52.2995L420.127 53.2295L420.532 54.4445ZM424.402 52.5545L424.507 54.6695L425.542 54.8195L425.437 55.3145L423.352 55.4945L423.157 54.6095H423.082L421.597 55.4945H420.037L418.987 54.7295L418.672 53.2595L419.332 52.0895L421.132 51.3095L423.112 51.2345L423.052 49.3595L422.767 48.4295L421.552 48.0845L420.097 48.4295L420.052 50.0195L419.467 50.1395L419.077 48.0845L420.802 47.5745L422.737 47.4845L423.907 48.0545L424.387 49.3445L424.402 52.5545Z" fill="#353434"/>
<path d="M40.9307 14.6455C40.9307 8.42598 35.8768 3.38458 29.6406 3.38458C25.8564 3.38458 22.5135 5.24961 20.4653 8.0971C18.4171 5.24961 15.0743 3.38458 11.2901 3.38458C5.05389 3.38458 -9.65206e-08 8.42598 -2.15597e-07 14.6455C-2.32415e-07 15.5239 0.1124 16.3773 0.303899 17.2016C1.87335 26.9139 12.7013 37.159 20.4653 39.9691C28.2252 37.159 39.0573 26.9139 40.6226 17.2016C40.8183 16.3773 40.9307 15.5239 40.9307 14.6455Z" fill="#ED9D8C"/>
<path d="M16.0778 24.874C16.236 25.4693 15.8863 26.0813 15.2951 26.2395L15.0703 26.3019C14.4792 26.4601 13.8714 26.1063 13.7132 25.5109L11.7482 18.1466C11.5942 17.5513 11.9439 16.9393 12.535 16.777L12.7557 16.7187C13.351 16.5605 13.9588 16.9144 14.117 17.5097L16.0778 24.874ZM19.0127 23.6751C19.1126 24.3078 18.6838 24.899 18.0552 24.9947L17.9053 25.0197C17.2767 25.1155 16.6897 24.6867 16.594 24.0539L15.1619 14.7704C15.062 14.1418 15.4949 13.5506 16.1194 13.4549L16.2693 13.4299C16.8979 13.33 17.4849 13.763 17.5806 14.3916L19.0127 23.6751ZM21.8727 23.6043C21.8352 24.2287 21.3023 24.7033 20.6862 24.67L20.5363 24.6575C19.916 24.6242 19.4415 24.0872 19.4789 23.4669L20.0035 14.2875C20.0368 13.6672 20.5696 13.1885 21.1899 13.2259L21.3398 13.2343C21.9601 13.2676 22.4305 13.8046 22.3972 14.4249L21.8727 23.6043ZM24.6827 24.8116C24.5495 25.3902 23.975 25.7524 23.3963 25.6192L23.0966 25.5484C22.5221 25.4152 22.1641 24.8365 22.2973 24.2579L24.2997 15.5531C24.4329 14.9744 25.0074 14.6122 25.586 14.7496L25.8858 14.8162C26.4603 14.9536 26.8183 15.5322 26.6851 16.1109L24.6827 24.8116ZM26.9723 29.9987C26.6518 30.5523 25.9441 30.7438 25.3904 30.4233L25.2738 30.3567C24.7201 30.032 24.5328 29.3201 24.8534 28.7664L28.2878 22.78C28.6042 22.2222 29.3161 22.0307 29.8656 22.3512L29.9863 22.422C30.54 22.7426 30.7274 23.4544 30.4068 24.0123L26.9723 29.9987Z" fill="white"/>
<path d="M13.0428 23.0049C13.3384 24.4495 12.9346 26.1979 12.9346 27.9297C12.9346 29.6574 14.2334 35.3191 20.2823 35.3191C26.327 35.3191 26.71 30.2485 27.63 28.7498C28.5458 27.2512 27.4052 24.7367 26.5185 25.8524C25.3195 27.3636 24.3953 27.1179 24.8991 24.1955C25.2737 22.0183 23.084 20.965 22.6927 22.93C22.3888 24.4495 21.8975 24.1331 21.9641 22.4554C22.0516 20.4322 19.7119 20.2115 19.5912 22.5095C19.508 24.1789 18.9501 23.467 18.7836 22.343C18.6421 21.3772 16.0943 20.6653 16.3274 22.1473C16.6896 24.4786 16.215 25.1239 15.4324 22.5928C14.9411 20.9942 12.7514 21.5603 13.0428 23.0049Z" fill="white"/>
<path d="M25.1568 26.7307C24.9736 26.6558 24.8446 26.431 24.7904 26.0438C23.6331 26.202 22.1011 26.5184 20.8939 27.7049C19.3286 29.241 19.0621 30.9062 19.0746 32.0177C19.083 32.9169 19.57 33.3416 19.7116 32.0136C19.8947 30.3317 21.0854 27.0055 25.1568 26.7307Z" fill="white"/>
<path d="M17.872 29.6531C17.9553 29.9528 17.7762 30.2567 17.4807 30.34L17.3724 30.3691C17.0727 30.4482 16.7688 30.2734 16.6897 29.9737L15.7114 26.2936C15.6323 25.998 15.8071 25.6899 16.1027 25.6108L16.2151 25.5817C16.5107 25.5026 16.8146 25.6774 16.8937 25.9772L17.872 29.6531ZM19.3415 29.0578C19.3915 29.3742 19.175 29.6698 18.8628 29.7156L18.7879 29.728C18.4756 29.778 18.1801 29.5615 18.1301 29.2451L17.4141 24.6075C17.3683 24.2953 17.5806 23.9997 17.8928 23.9498L17.9719 23.9373C18.2841 23.8873 18.5755 24.1038 18.6255 24.4202L19.3415 29.0578ZM20.7695 29.0203C20.7528 29.3326 20.4864 29.5698 20.1783 29.5532L20.1034 29.549C19.7911 29.5324 19.558 29.2659 19.5747 28.9537L19.8369 24.3661C19.8536 24.0539 20.12 23.8166 20.4281 23.8332L20.503 23.8415C20.8152 23.8582 21.0484 24.1246 21.0317 24.4369L20.7695 29.0203ZM22.1765 29.624C22.1099 29.9154 21.8227 30.0944 21.5313 30.0278L21.3856 29.9945C21.0942 29.9279 20.9152 29.6365 20.9818 29.3492L21.985 24.9989C22.0517 24.7116 22.3389 24.5284 22.6262 24.5951L22.776 24.6325C23.0674 24.6991 23.2464 24.9864 23.1798 25.2778L22.1765 29.624ZM23.3214 32.2175C23.1632 32.4923 22.8093 32.588 22.5304 32.4298L22.4721 32.3965C22.1974 32.2342 22.1016 31.8803 22.2598 31.6014L23.9791 28.6082C24.1373 28.3334 24.4912 28.2377 24.7701 28.3959L24.8284 28.4292C25.1031 28.5915 25.1989 28.9454 25.0407 29.2243L23.3214 32.2175Z" fill="#59B5C2"/>
<path d="M16.3564 28.7206C16.5021 29.445 16.3022 30.3192 16.3022 31.181C16.3022 32.0469 16.9517 34.8777 19.974 34.8777C23.0005 34.8777 23.192 32.3425 23.6499 31.5931C24.1079 30.8438 23.5375 29.5865 23.0963 30.1444C22.4968 30.9021 22.0347 30.7772 22.2845 29.316C22.4718 28.2294 21.3769 27.7049 21.1813 28.6873C21.0314 29.445 20.7816 29.2868 20.8191 28.4459C20.8607 27.4384 19.6909 27.326 19.6326 28.475C19.5869 29.3076 19.3121 28.9538 19.2247 28.3918C19.1539 27.9089 17.8842 27.555 17.9966 28.2919C18.1798 29.4575 17.9425 29.7822 17.5511 28.5167C17.3055 27.7174 16.2107 28.0004 16.3564 28.7206Z" fill="#59B5C2"/>
<path d="M22.4134 30.5815C22.3218 30.5441 22.2593 30.4317 22.2302 30.2402C21.6515 30.3193 20.8855 30.4775 20.2819 31.0686C19.4993 31.8388 19.366 32.6714 19.3702 33.2251C19.3785 33.6747 19.62 33.887 19.6908 33.2251C19.7823 32.3841 20.3777 30.7231 22.4134 30.5815Z" fill="#59B5C2"/>
</svg>
