<svg width="238" height="39" viewBox="0 0 238 39" fill="none" xmlns="http://www.w3.org/2000/svg">
<path d="M50.9595 11.1763H54.2407V31.3286H50.9595V11.1763ZM57.0298 11.1763C58.7251 11.1763 60.2108 11.4497 61.4868 11.9966C62.7811 12.5252 63.8475 13.2362 64.686 14.1294C65.5428 15.0226 66.1808 16.0435 66.6001 17.1919C67.0194 18.3221 67.229 19.4888 67.229 20.6919C67.229 22.3507 67.0467 23.7726 66.6821 24.9575C66.3358 26.1242 65.8892 27.1086 65.3423 27.9106C64.7954 28.6945 64.1756 29.3143 63.4829 29.77C62.8084 30.2257 62.1522 30.5721 61.5142 30.8091C60.8761 31.0278 60.2928 31.1737 59.7642 31.2466C59.2355 31.3013 58.8436 31.3286 58.5884 31.3286H55.3618V28.9224H57.4946C59.7186 28.9224 61.3228 28.2114 62.3071 26.7896C63.2915 25.3677 63.7837 23.3078 63.7837 20.6099C63.7837 19.7713 63.6834 18.9419 63.4829 18.1216C63.2824 17.3013 62.8905 16.563 62.3071 15.9067C61.742 15.2323 60.9673 14.6945 59.9829 14.2935C58.9985 13.8742 57.7225 13.6646 56.1548 13.6646H55.3618V11.1763H57.0298ZM71.8501 11.1763H75.1313V31.3286H71.8501V11.1763ZM85.522 31.3286H82.0493L78.2485 24.0278C78.1938 24.0278 78.13 24.0369 78.0571 24.0552C78.0024 24.0552 77.9113 24.0552 77.7837 24.0552C77.6561 24.0552 77.4647 24.0552 77.2095 24.0552C76.9725 24.0552 76.6535 24.0552 76.2524 24.0552V21.6489H78.1118C78.5129 21.6489 78.9139 21.5851 79.3149 21.4575C79.716 21.3117 80.0806 21.0838 80.4087 20.7739C80.7368 20.464 81.0011 20.0356 81.2017 19.4888C81.4022 18.9237 81.5024 18.231 81.5024 17.4106C81.5024 17.0825 81.4569 16.7088 81.3657 16.2896C81.2746 15.8521 81.0832 15.4419 80.7915 15.0591C80.5181 14.658 80.1261 14.3299 79.6157 14.0747C79.1053 13.8013 78.4308 13.6646 77.5923 13.6646H76.2524V11.1763H77.647C78.5037 11.1763 79.3514 11.313 80.1899 11.5864C81.0285 11.8599 81.7759 12.27 82.4321 12.8169C83.1066 13.3638 83.6444 14.0291 84.0454 14.813C84.4647 15.5786 84.6743 16.4445 84.6743 17.4106C84.6743 18.869 84.3371 20.1086 83.6626 21.1294C82.9881 22.1502 82.0767 22.9067 80.9282 23.3989L85.522 31.3286ZM102.967 11.1763V13.8286L93.3696 28.2388L92.8228 28.6763H102.967V31.3286H89.5688V28.6763L99.1665 14.2661L99.7407 13.8286H89.5688V11.1763H102.967ZM92.0298 5.35205H95.0376L95.6665 6.50049V9.23486H94.9829L92.0298 5.35205ZM97.4165 5.35205H100.452L97.4712 9.23486H96.7876V6.47314L97.4165 5.35205ZM121.807 11.1763V13.4185H115.792V31.3286H112.483V13.4185H106.467V11.1763H121.807ZM125.799 11.1763H129.135V31.3286H125.799V11.1763ZM137.557 22.2505H130.256V20.0083H137.557V22.2505ZM130.256 28.8403H138.405V31.3286H130.256V28.8403ZM138.405 11.1763V13.6646H130.256V11.1763H138.405ZM150.354 11.1763H153.635V31.3286H150.354V11.1763ZM156.151 11.1763C157.008 11.1763 157.855 11.313 158.694 11.5864C159.532 11.8599 160.28 12.27 160.936 12.8169C161.611 13.3638 162.148 14.0291 162.549 14.813C162.969 15.5786 163.178 16.4445 163.178 17.4106C163.178 18.4315 163.005 19.3612 162.659 20.1997C162.312 21.02 161.829 21.7127 161.209 22.2778C160.59 22.8429 159.842 23.2804 158.967 23.5903C158.092 23.9002 157.126 24.0552 156.069 24.0552H154.756V21.6489H156.643C157.044 21.6489 157.436 21.5851 157.819 21.4575C158.22 21.3117 158.584 21.0838 158.913 20.7739C159.241 20.464 159.505 20.0356 159.706 19.4888C159.906 18.9237 160.006 18.231 160.006 17.4106C160.006 17.0825 159.961 16.7088 159.87 16.2896C159.778 15.8521 159.587 15.4419 159.295 15.0591C159.022 14.658 158.63 14.3299 158.12 14.0747C157.609 13.8013 156.935 13.6646 156.096 13.6646H154.756V11.1763H156.151ZM183.44 31.3286H180.049L174.827 16.2349L169.549 31.3286H166.131L173.186 11.2036H176.44L183.44 31.3286ZM176.631 24.9302L177.424 27.145H172.202L172.967 24.9302H176.631ZM191.042 11.1763V28.8403H200.311V31.3286H187.706V11.1763H191.042ZM215.022 15.0591C214.603 14.5851 214.156 14.2297 213.682 13.9927C213.208 13.7557 212.698 13.619 212.151 13.5825V10.8755C214.193 10.9666 215.906 11.6867 217.292 13.0356L215.022 15.0591ZM212.151 28.7583C212.698 28.7036 213.208 28.5578 213.682 28.3208C214.174 28.0838 214.621 27.7375 215.022 27.2817L217.292 29.2778C216.599 29.9523 215.824 30.4718 214.967 30.8364C214.111 31.201 213.172 31.4106 212.151 31.4653V28.7583ZM203.292 21.1567C203.292 19.5343 203.483 18.1034 203.866 16.8638C204.267 15.6242 204.814 14.576 205.506 13.7192C206.199 12.8625 207.01 12.1971 207.94 11.7231C208.888 11.2492 209.918 10.9666 211.03 10.8755V13.6099C210.428 13.701 209.863 13.9106 209.334 14.2388C208.806 14.5487 208.341 15.0044 207.94 15.606C207.539 16.2075 207.22 16.9731 206.983 17.9028C206.764 18.8143 206.646 19.8989 206.627 21.1567C206.646 22.4328 206.764 23.5265 206.983 24.438C207.22 25.3494 207.539 26.1151 207.94 26.7349C208.341 27.3547 208.806 27.8286 209.334 28.1567C209.881 28.4849 210.446 28.6854 211.03 28.7583V31.438C209.918 31.3651 208.888 31.0916 207.94 30.6177C207.01 30.1437 206.199 29.4784 205.506 28.6216C204.814 27.7648 204.267 26.7166 203.866 25.4771C203.483 24.2192 203.292 22.7791 203.292 21.1567ZM222.077 11.1763H225.413V31.3286H222.077V11.1763ZM233.834 22.2505H226.534V20.0083H233.834V22.2505ZM226.534 28.8403H234.682V31.3286H226.534V28.8403ZM234.682 11.1763V13.6646H226.534V11.1763H234.682Z" fill="#FAFAFA"/>
<path d="M41.335 11.9741C41.335 5.75454 36.2811 0.713135 30.0449 0.713135C26.2607 0.713135 22.9178 2.57816 20.8696 5.42566C18.8214 2.57816 15.4785 0.713135 11.6944 0.713135C5.45819 0.713135 0.404297 5.75453 0.404297 11.9741C0.404297 12.8525 0.516697 13.7059 0.708196 14.5301C2.27765 24.2424 13.1056 34.4876 20.8696 37.2976C28.6295 34.4876 39.4616 24.2424 41.0269 14.5301C41.2226 13.7059 41.335 12.8525 41.335 11.9741Z" fill="#ED9D8C"/>
<path d="M16.4821 22.2026C16.6402 22.7979 16.2906 23.4099 15.6994 23.5681L15.4746 23.6305C14.8835 23.7887 14.2757 23.4349 14.1175 22.8396L12.1525 15.4752C11.9985 14.8799 12.3482 14.2679 12.9393 14.1056L13.16 14.0473C13.7553 13.8891 14.3631 14.243 14.5213 14.8383L16.4821 22.2026ZM19.417 21.0037C19.5169 21.6365 19.0881 22.2276 18.4595 22.3234L18.3096 22.3483C17.681 22.4441 17.094 22.0153 16.9983 21.3825L15.5662 12.099C15.4663 11.4704 15.8992 10.8793 16.5237 10.7835L16.6736 10.7585C17.3022 10.6586 17.8891 11.0916 17.9849 11.7202L19.417 21.0037ZM22.2769 20.9329C22.2395 21.5574 21.7066 22.0319 21.0905 21.9986L20.9406 21.9861C20.3203 21.9528 19.8458 21.4158 19.8832 20.7955L20.4078 11.6161C20.4411 10.9958 20.9739 10.5171 21.5942 10.5545L21.7441 10.5629C22.3644 10.5962 22.8348 11.1332 22.8015 11.7535L22.2769 20.9329ZM25.087 22.1402C24.9538 22.7188 24.3793 23.081 23.8006 22.9478L23.5009 22.877C22.9264 22.7438 22.5684 22.1652 22.7016 21.5865L24.704 12.8817C24.8372 12.303 25.4117 11.9408 25.9903 12.0782L26.2901 12.1448C26.8646 12.2822 27.2226 12.8609 27.0894 13.4395L25.087 22.1402ZM27.3766 27.3273C27.0561 27.881 26.3484 28.0725 25.7947 27.7519L25.6781 27.6853C25.1244 27.3606 24.9371 26.6487 25.2577 26.095L28.6921 20.1086C29.0085 19.5508 29.7204 19.3593 30.2699 19.6798L30.3906 19.7506C30.9443 20.0712 31.1317 20.783 30.8111 21.3409L27.3766 27.3273Z" fill="#FAFAFA"/>
<path d="M13.4471 20.3334C13.7427 21.778 13.3389 23.5265 13.3389 25.2583C13.3389 26.9859 14.6377 32.6476 20.6866 32.6476C26.7313 32.6476 27.1143 27.5771 28.0343 26.0784C28.9501 24.5797 27.8095 22.0653 26.9228 23.1809C25.7238 24.6921 24.7996 24.4465 25.3033 21.5241C25.678 19.3468 23.4883 18.2936 23.097 20.2585C22.7931 21.778 22.3018 21.4616 22.3684 19.7839C22.4559 17.7607 20.1162 17.5401 19.9955 19.8381C19.9123 21.5074 19.3544 20.7955 19.1879 19.6715C19.0463 18.7057 16.4986 17.9938 16.7317 19.4759C17.0939 21.8072 16.6193 22.4524 15.8367 19.9213C15.3454 18.3227 13.1557 18.8889 13.4471 20.3334Z" fill="#FAFAFA"/>
<path d="M25.5611 24.0593C25.3779 23.9844 25.2489 23.7596 25.1947 23.3724C24.0374 23.5306 22.5054 23.847 21.2982 25.0335C19.7329 26.5696 19.4664 28.2348 19.4789 29.3463C19.4872 30.2455 19.9743 30.6702 20.1159 29.3422C20.299 27.6603 21.4897 24.3341 25.5611 24.0593Z" fill="#FAFAFA"/>
<path d="M18.2763 26.9817C18.3596 27.2815 18.1805 27.5854 17.885 27.6686L17.7767 27.6978C17.477 27.7769 17.1731 27.602 17.094 27.3023L16.1157 23.6222C16.0366 23.3266 16.2114 23.0185 16.507 22.9394L16.6194 22.9103C16.915 22.8312 17.2189 23.006 17.298 23.3058L18.2763 26.9817ZM19.7458 26.3864C19.7958 26.7028 19.5793 26.9984 19.2671 27.0442L19.1922 27.0567C18.8799 27.1066 18.5844 26.8901 18.5344 26.5737L17.8184 21.9362C17.7726 21.6239 17.9849 21.3284 18.2971 21.2784L18.3762 21.2659C18.6884 21.216 18.9798 21.4324 19.0298 21.7488L19.7458 26.3864ZM21.1737 26.3489C21.1571 26.6612 20.8907 26.8985 20.5826 26.8818L20.5077 26.8776C20.1954 26.861 19.9623 26.5946 19.979 26.2823L20.2412 21.6947C20.2579 21.3825 20.5243 21.1452 20.8324 21.1618L20.9073 21.1702C21.2195 21.1868 21.4527 21.4532 21.436 21.7655L21.1737 26.3489ZM22.5808 26.9526C22.5142 27.244 22.227 27.423 21.9356 27.3564L21.7899 27.3231C21.4985 27.2565 21.3195 26.9651 21.3861 26.6778L22.3893 22.3275C22.456 22.0402 22.7432 21.8571 23.0304 21.9237L23.1803 21.9611C23.4717 22.0277 23.6507 22.315 23.5841 22.6064L22.5808 26.9526ZM23.7257 29.5461C23.5675 29.8209 23.2136 29.9166 22.9347 29.7584L22.8764 29.7251C22.6017 29.5628 22.5059 29.2089 22.6641 28.93L24.3834 25.9368C24.5416 25.662 24.8955 25.5663 25.1744 25.7245L25.2327 25.7578C25.5074 25.9202 25.6032 26.274 25.445 26.5529L23.7257 29.5461Z" fill="#59B5C2"/>
<path d="M16.7607 26.0493C16.9064 26.7736 16.7065 27.6478 16.7065 28.5096C16.7065 29.3755 17.356 32.2063 20.3783 32.2063C23.4048 32.2063 23.5963 29.6711 24.0542 28.9217C24.5122 28.1724 23.9418 26.9152 23.5006 27.473C22.9011 28.2307 22.439 28.1058 22.6888 26.6446C22.8761 25.558 21.7812 25.0335 21.5856 26.016C21.4357 26.7736 21.1859 26.6154 21.2234 25.7745C21.265 24.7671 20.0952 24.6546 20.0369 25.8036C19.9912 26.6362 19.7164 26.2824 19.629 25.7204C19.5582 25.2375 18.2885 24.8836 18.4009 25.6205C18.5841 26.7861 18.3468 27.1108 17.9554 25.8453C17.7098 25.046 16.615 25.3291 16.7607 26.0493Z" fill="#59B5C2"/>
<path d="M22.8177 27.9102C22.7261 27.8727 22.6636 27.7603 22.6345 27.5688C22.0558 27.6479 21.2898 27.8061 20.6862 28.3973C19.9036 29.1674 19.7703 30 19.7745 30.5537C19.7828 31.0033 20.0243 31.2156 20.0951 30.5537C20.1866 29.7128 20.782 28.0518 22.8177 27.9102Z" fill="#59B5C2"/>
</svg>
